<svg width="90" height="90" viewBox="0 0 90 90" fill="none" xmlns="http://www.w3.org/2000/svg">
<path d="M45 0.251465C36.1496 0.251465 27.4979 2.87592 20.139 7.79294C12.7802 12.71 7.04467 19.6987 3.65776 27.8754C0.270854 36.0522 -0.615316 45.0496 1.11131 53.7299C2.83794 62.4103 7.09983 70.3837 13.358 76.6419C19.6162 82.9001 27.5896 87.162 36.27 88.8886C44.9503 90.6152 53.9478 89.7291 62.1245 86.3422C70.3012 82.9553 77.29 77.2197 82.207 69.8609C87.124 62.502 89.7485 53.8504 89.7485 45C89.7351 33.136 85.0162 21.7618 76.6272 13.3728C68.2381 4.98369 56.8639 0.264839 45 0.251465V0.251465ZM45 87.0688C36.6795 87.0688 28.546 84.6015 21.6278 79.9789C14.7096 75.3563 9.31756 68.7861 6.13347 61.099C2.94938 53.4119 2.11628 44.9533 3.73951 36.7927C5.36275 28.6322 9.36941 21.1362 15.2528 15.2528C21.1363 9.36939 28.6322 5.36273 36.7928 3.73949C44.9533 2.11626 53.4119 2.94936 61.099 6.13345C68.7861 9.31754 75.3563 14.7096 79.9789 21.6278C84.6015 28.546 87.0688 36.6795 87.0688 45C87.0562 56.1534 82.6199 66.8465 74.7332 74.7332C66.8465 82.6199 56.1535 87.0562 45 87.0688V87.0688Z" fill="black"/>
</svg>
