<svg width="78" height="84" viewBox="0 0 78 84" fill="none" xmlns="http://www.w3.org/2000/svg">
<path d="M59.6693 83.3075C48.6204 83.3075 33.5897 75.3946 20.6576 61.653C2.27647 42.1206 -5.02581 18.1036 4.3817 8.11104L9.59096 2.58307C10.5746 1.54078 11.9072 0.955444 13.2965 0.955444C14.6858 0.955444 16.0184 1.54078 17.002 2.58307L28.1441 14.4195C29.1252 15.4644 29.6762 16.88 29.6762 18.3559C29.6762 19.8318 29.1252 21.2474 28.1441 22.2923L24.8403 25.8008C21.0416 29.8315 24.6061 40.4277 32.6187 48.9419C40.6312 57.4561 50.6069 61.2392 54.4023 57.2109L57.705 53.7012C58.6888 52.6592 60.0213 52.0741 61.4105 52.0741C62.7997 52.0741 64.1323 52.6592 65.116 53.7012L76.2581 65.5376C77.2398 66.5822 77.7912 67.998 77.7912 69.474C77.7912 70.9501 77.2398 72.3658 76.2581 73.4104L71.0544 78.9384C68.2678 81.8987 64.3203 83.3075 59.6693 83.3075V83.3075ZM13.2909 3.31165C12.8939 3.31145 12.5007 3.39468 12.1341 3.55654C11.7675 3.71841 11.4346 3.95571 11.1546 4.25478L5.95091 9.77804C-2.59431 18.8558 4.7113 41.3732 22.2268 59.9813C39.7423 78.5895 60.9433 86.3456 69.4852 77.2714L74.6889 71.7434C75.2545 71.141 75.5721 70.3249 75.5721 69.474C75.5721 68.6232 75.2545 67.807 74.6889 67.2046L63.5468 55.367C62.9796 54.7668 62.2116 54.4298 61.4111 54.4298C60.6105 54.4298 59.8425 54.7668 59.2753 55.367L55.9715 58.8767C51.1685 63.9802 40.2217 60.3491 31.0495 50.6077C21.8772 40.8663 18.4613 29.2374 23.2655 24.1338L26.5704 20.6241C27.136 20.0219 27.4535 19.206 27.4535 18.3553C27.4535 17.5046 27.136 16.6887 26.5704 16.0865L15.4272 4.25007C15.1469 3.95184 14.8139 3.71541 14.4472 3.55437C14.0806 3.39332 13.6877 3.31083 13.2909 3.31165V3.31165Z" fill="black"/>
</svg>

