<svg width="270" height="90" viewBox="0 0 270 90" fill="none" xmlns="http://www.w3.org/2000/svg">
<path d="M68.7795 0.784012V90H57.1315V49.552H11.6915V90H0.0435009V0.784012H11.6915V39.952H57.1315V0.784012H68.7795ZM100.317 10.256V40.08H132.829V49.68H100.317V80.4H136.669V90H88.6685V0.656013H136.669V10.256H100.317ZM165.942 80.528H197.174V90H154.294V0.784012H165.942V80.528ZM269.192 26.896C269.192 34.32 266.632 40.5067 261.512 45.456C256.477 50.32 248.754 52.752 238.344 52.752H221.192V90H209.544V0.784012H238.344C248.413 0.784012 256.05 3.21601 261.256 8.08001C266.546 12.944 269.192 19.216 269.192 26.896ZM238.344 43.152C244.829 43.152 249.608 41.744 252.68 38.928C255.752 36.112 257.288 32.1013 257.288 26.896C257.288 15.888 250.973 10.384 238.344 10.384H221.192V43.152H238.344Z" fill="black"/>
</svg>
