<svg width="91" height="88" viewBox="0 0 91 88" fill="none" xmlns="http://www.w3.org/2000/svg">
<path d="M81.7914 16.1258H70.1818V9.95929C70.1793 7.50688 69.2612 5.15567 67.6288 3.42155C65.9964 1.68744 63.7831 0.712074 61.4745 0.709473H9.23115C6.92261 0.712074 4.70931 1.68744 3.07692 3.42155C1.44453 5.15567 0.526375 7.50688 0.523926 9.95929V50.0418C0.526375 52.4942 1.44453 54.8454 3.07692 56.5796C4.70931 58.3137 6.92261 59.289 9.23115 59.2916V70.0831C9.23093 70.3882 9.31592 70.6865 9.47536 70.9402C9.63481 71.194 9.86154 71.3917 10.1269 71.5085C10.3922 71.6253 10.6841 71.6558 10.9658 71.5962C11.2474 71.5367 11.5061 71.3896 11.7091 71.1738L20.8408 61.4711V65.4582C20.8432 67.9106 21.7614 70.2618 23.3938 71.9959C25.0262 73.73 27.2395 74.7054 29.548 74.708H68.1301L79.3135 86.5902C79.5164 86.806 79.7751 86.953 80.0568 87.0126C80.3384 87.0722 80.6304 87.0417 80.8957 86.9249C81.161 86.8081 81.3877 86.6103 81.5472 86.3566C81.7066 86.1028 81.7916 85.8045 81.7914 85.4994V74.708C84.0999 74.7054 86.3132 73.73 87.9456 71.9959C89.578 70.2618 90.4962 67.9106 90.4986 65.4582V25.3756C90.4962 22.9232 89.578 20.572 87.9456 18.8379C86.3132 17.1038 84.0999 16.1284 81.7914 16.1258V16.1258ZM22.292 56.2084C21.907 56.2082 21.5377 56.3704 21.2653 56.6593L12.1336 66.362V57.75C12.1336 57.3411 11.9807 56.949 11.7085 56.6599C11.4364 56.3708 11.0672 56.2084 10.6824 56.2084H9.23115C7.69215 56.2065 6.21668 55.5562 5.12844 54.4002C4.0402 53.2441 3.42806 51.6767 3.42634 50.0418V9.95929C3.42806 8.32438 4.0402 6.75696 5.12844 5.60091C6.21668 4.44486 7.69215 3.79458 9.23115 3.79274H61.4745C63.0135 3.79458 64.489 4.44486 65.5772 5.60091C66.6655 6.75696 67.2776 8.32438 67.2793 9.95929V50.0418C67.2776 51.6767 66.6655 53.2441 65.5772 54.4002C64.489 55.5562 63.0135 56.2065 61.4745 56.2084H22.292ZM87.5962 65.4582C87.5945 67.0931 86.9823 68.6605 85.8941 69.8166C84.8059 70.9726 83.3304 71.6229 81.7914 71.6247H80.3402C79.9553 71.6247 79.5862 71.7871 79.314 72.0763C79.0419 72.3654 78.889 72.7575 78.889 73.1664V81.7783L69.7573 72.0757C69.4848 71.7868 69.1155 71.6246 68.7306 71.6247H29.548C28.009 71.6229 26.5335 70.9726 25.4453 69.8166C24.3571 68.6605 23.7449 67.0931 23.7432 65.4582V59.2916H61.4745C63.7831 59.289 65.9964 58.3137 67.6288 56.5796C69.2612 54.8454 70.1793 52.4942 70.1818 50.0418V19.2091H81.7914C83.3304 19.2109 84.8059 19.8612 85.8941 21.0173C86.9823 22.1733 87.5945 23.7407 87.5962 25.3756V65.4582Z" fill="black"/>
</svg>
