<svg width="45" height="45" viewBox="0 0 45 45" fill="none" xmlns="http://www.w3.org/2000/svg">
<path d="M4.6875 45H40.3125C42.8981 45 45 42.8981 45 40.3125V4.6875C45 2.10188 42.8981 0 40.3125 0H4.6875C2.10188 0 0 2.10188 0 4.6875V40.3125C0 42.8981 2.10188 45 4.6875 45ZM40.3125 1.875C41.8631 1.875 43.125 3.13687 43.125 4.6875V40.3125C43.125 41.8631 41.8631 43.125 40.3125 43.125H4.6875C3.13688 43.125 1.875 41.8631 1.875 40.3125V4.6875C1.875 3.13687 3.13688 1.875 4.6875 1.875H40.3125Z" fill="black"/>
</svg>
