<svg width="350" height="224" viewBox="0 0 350 224" fill="none" xmlns="http://www.w3.org/2000/svg">
<path d="M0 4.99999C0 2.23857 2.23858 0 5 0H345C347.761 0 350 2.23858 350 5V218.355C350 221.117 347.761 223.355 345 223.355H4.99999C2.23857 223.355 0 221.117 0 218.355V4.99999Z" fill="#FF83A1"/>
<mask id="mask0_604_89" style="mask-type:alpha" maskUnits="userSpaceOnUse" x="0" y="0" width="350" height="224">
<rect width="350" height="223.355" rx="5" fill="#FF83A1"/>
</mask>
<g mask="url(#mask0_604_89)">
<path d="M350 25.3293C307.853 153.587 91.5516 192.523 -1.88741 195.958H-13.8158V239.474H350V25.3293Z" fill="#F66A8C"/>
</g>
<circle cx="286.678" cy="44.9033" r="17.2697" fill="#2DD3E3"/>
<circle cx="305.099" cy="44.9018" r="17.2697" fill="#FEE89E"/>
<path d="M32.8815 105.988L34.2877 103.673H35.5533L33.4791 106.808L35.6178 110.013H34.3639L32.899 107.64L31.4342 110.013H30.1744L32.3131 106.808L30.2389 103.673H31.4928L32.8815 105.988ZM38.8346 105.988L40.2408 103.673H41.5065L39.4323 106.808L41.5709 110.013H40.317L38.8522 107.64L37.3873 110.013H36.1276L38.2662 106.808L36.192 103.673H37.4459L38.8346 105.988ZM44.7877 105.988L46.194 103.673H47.4596L45.3854 106.808L47.524 110.013H46.2701L44.8053 107.64L43.3405 110.013H42.0807L44.2194 106.808L42.1451 103.673H43.399L44.7877 105.988ZM50.7408 105.988L52.1471 103.673H53.4127L51.3385 106.808L53.4772 110.013H52.2233L50.7584 107.64L49.2936 110.013H48.0338L50.1725 106.808L48.0983 103.673H49.3522L50.7408 105.988ZM59.6705 105.988L61.0768 103.673H62.3424L60.2682 106.808L62.4069 110.013H61.153L59.6881 107.64L58.2233 110.013H56.9635L59.1022 106.808L57.028 103.673H58.2819L59.6705 105.988ZM65.6237 105.988L67.0299 103.673H68.2955L66.2213 106.808L68.36 110.013H67.1061L65.6412 107.64L64.1764 110.013H62.9166L65.0553 106.808L62.9811 103.673H64.235L65.6237 105.988ZM71.5768 105.988L72.983 103.673H74.2487L72.1744 106.808L74.3131 110.013H73.0592L71.5944 107.64L70.1295 110.013H68.8698L71.0084 106.808L68.9342 103.673H70.1881L71.5768 105.988ZM77.5299 105.988L78.9362 103.673H80.2018L78.1276 106.808L80.2662 110.013H79.0123L77.5475 107.64L76.0826 110.013H74.8229L76.9615 106.808L74.8873 103.673H76.1412L77.5299 105.988ZM86.4596 105.988L87.8658 103.673H89.1315L87.0573 106.808L89.1959 110.013H87.942L86.4772 107.64L85.0123 110.013H83.7526L85.8912 106.808L83.817 103.673H85.0709L86.4596 105.988ZM92.4127 105.988L93.819 103.673H95.0846L93.0104 106.808L95.149 110.013H93.8951L92.4303 107.64L90.9655 110.013H89.7057L91.8444 106.808L89.7701 103.673H91.024L92.4127 105.988ZM98.3658 105.988L99.7721 103.673H101.038L98.9635 106.808L101.102 110.013H99.8483L98.3834 107.64L96.9186 110.013H95.6588L97.7975 106.808L95.7233 103.673H96.9772L98.3658 105.988ZM104.319 105.988L105.725 103.673H106.991L104.917 106.808L107.055 110.013H105.801L104.337 107.64L102.872 110.013H101.612L103.751 106.808L101.676 103.673H102.93L104.319 105.988ZM111.508 105.736L111.942 101.482H116.313V102.484H112.862L112.604 104.81C113.022 104.564 113.497 104.441 114.028 104.441C114.805 104.441 115.422 104.699 115.88 105.214C116.337 105.726 116.565 106.419 116.565 107.294C116.565 108.173 116.327 108.867 115.85 109.375C115.378 109.878 114.715 110.13 113.864 110.13C113.11 110.13 112.495 109.921 112.018 109.503C111.542 109.085 111.27 108.507 111.204 107.769H112.229C112.296 108.257 112.469 108.626 112.751 108.876C113.032 109.123 113.403 109.246 113.864 109.246C114.368 109.246 114.762 109.074 115.047 108.73C115.337 108.386 115.481 107.912 115.481 107.306C115.481 106.736 115.325 106.279 115.012 105.935C114.704 105.587 114.292 105.414 113.776 105.414C113.303 105.414 112.932 105.517 112.663 105.724L112.376 105.958L111.508 105.736ZM122.003 101.476V102.396H121.803C120.96 102.412 120.288 102.662 119.788 103.146C119.288 103.63 118.999 104.312 118.921 105.191C119.37 104.675 119.983 104.417 120.76 104.417C121.503 104.417 122.094 104.679 122.536 105.203C122.981 105.726 123.204 106.402 123.204 107.23C123.204 108.109 122.964 108.812 122.483 109.339C122.006 109.867 121.366 110.13 120.561 110.13C119.745 110.13 119.083 109.818 118.575 109.193C118.067 108.564 117.813 107.755 117.813 106.767V106.351C117.813 104.781 118.147 103.582 118.815 102.753C119.487 101.921 120.485 101.496 121.809 101.476H122.003ZM120.579 105.32C120.208 105.32 119.866 105.431 119.553 105.654C119.241 105.876 119.024 106.156 118.903 106.492V106.89C118.903 107.593 119.061 108.16 119.378 108.589C119.694 109.019 120.089 109.234 120.561 109.234C121.049 109.234 121.432 109.054 121.71 108.695C121.991 108.335 122.131 107.865 122.131 107.283C122.131 106.697 121.989 106.224 121.704 105.865C121.422 105.501 121.047 105.32 120.579 105.32ZM129.661 103.708C129.661 104.134 129.547 104.513 129.321 104.845C129.098 105.177 128.796 105.437 128.413 105.625C128.858 105.816 129.21 106.095 129.467 106.462C129.729 106.83 129.86 107.246 129.86 107.71C129.86 108.449 129.61 109.037 129.11 109.474C128.614 109.912 127.96 110.13 127.147 110.13C126.327 110.13 125.669 109.912 125.172 109.474C124.68 109.033 124.434 108.445 124.434 107.71C124.434 107.25 124.559 106.833 124.809 106.462C125.063 106.091 125.413 105.81 125.858 105.619C125.479 105.431 125.18 105.171 124.962 104.839C124.743 104.507 124.633 104.13 124.633 103.708C124.633 102.99 124.864 102.419 125.325 101.998C125.786 101.576 126.393 101.365 127.147 101.365C127.897 101.365 128.503 101.576 128.964 101.998C129.428 102.419 129.661 102.99 129.661 103.708ZM128.776 107.687C128.776 107.21 128.624 106.822 128.319 106.521C128.018 106.22 127.624 106.07 127.135 106.07C126.647 106.07 126.255 106.218 125.958 106.515C125.665 106.812 125.518 107.203 125.518 107.687C125.518 108.171 125.661 108.552 125.946 108.83C126.235 109.107 126.635 109.246 127.147 109.246C127.655 109.246 128.053 109.107 128.342 108.83C128.631 108.548 128.776 108.167 128.776 107.687ZM127.147 102.255C126.721 102.255 126.376 102.388 126.11 102.654C125.848 102.916 125.717 103.273 125.717 103.726C125.717 104.16 125.846 104.511 126.104 104.781C126.366 105.046 126.714 105.179 127.147 105.179C127.581 105.179 127.926 105.046 128.184 104.781C128.446 104.511 128.577 104.16 128.577 103.726C128.577 103.292 128.442 102.939 128.172 102.666C127.903 102.392 127.561 102.255 127.147 102.255ZM135.38 106.263C135.153 106.533 134.881 106.75 134.565 106.914C134.253 107.078 133.909 107.16 133.534 107.16C133.042 107.16 132.612 107.039 132.245 106.796C131.881 106.554 131.6 106.214 131.401 105.777C131.202 105.335 131.102 104.849 131.102 104.318C131.102 103.748 131.21 103.234 131.424 102.777C131.643 102.32 131.952 101.97 132.35 101.728C132.749 101.486 133.214 101.365 133.745 101.365C134.589 101.365 135.253 101.681 135.737 102.314C136.225 102.943 136.469 103.802 136.469 104.892V105.208C136.469 106.869 136.141 108.082 135.485 108.847C134.829 109.609 133.839 110 132.514 110.019H132.303V109.105H132.532C133.426 109.089 134.114 108.857 134.594 108.408C135.075 107.955 135.337 107.24 135.38 106.263ZM133.71 106.263C134.073 106.263 134.407 106.152 134.712 105.929C135.02 105.707 135.245 105.431 135.385 105.103V104.669C135.385 103.958 135.231 103.38 134.922 102.935C134.614 102.49 134.223 102.267 133.751 102.267C133.274 102.267 132.891 102.451 132.602 102.818C132.313 103.181 132.169 103.662 132.169 104.259C132.169 104.841 132.307 105.322 132.585 105.701C132.866 106.076 133.241 106.263 133.71 106.263Z" fill="white"/>
<path d="M33.4938 66.5657H32.5856V60.5452L30.7643 61.2141V60.3938L33.3522 59.4221H33.4938V66.5657ZM40.5983 63.5334C40.5983 64.5914 40.4176 65.3775 40.0563 65.8918C39.6949 66.4062 39.1302 66.6633 38.3619 66.6633C37.6035 66.6633 37.042 66.4127 36.6774 65.9114C36.3128 65.4068 36.124 64.6549 36.111 63.6555V62.4495C36.111 61.4045 36.2916 60.6282 36.653 60.1204C37.0143 59.6125 37.5807 59.3586 38.3522 59.3586C39.1171 59.3586 39.6803 59.6044 40.0416 60.0959C40.403 60.5842 40.5885 61.3394 40.5983 62.3616V63.5334ZM39.6949 62.2981C39.6949 61.5331 39.5875 60.9765 39.3727 60.6282C39.1578 60.2766 38.8177 60.1008 38.3522 60.1008C37.8899 60.1008 37.553 60.275 37.3414 60.6233C37.1298 60.9716 37.0208 61.5071 37.0143 62.2297V63.675C37.0143 64.4433 37.125 65.0113 37.3463 65.3792C37.5709 65.7437 37.9095 65.926 38.3619 65.926C38.8079 65.926 39.1383 65.7535 39.3531 65.4084C39.5712 65.0634 39.6852 64.5198 39.6949 63.7776V62.2981ZM42.0289 67.176H41.2526L44.2213 59.4563H44.9928L42.0289 67.176ZM50.5348 66.5657H45.8766V65.9163L48.3375 63.1819C48.7021 62.7685 48.9528 62.4332 49.0895 62.176C49.2295 61.9156 49.2994 61.6471 49.2994 61.3704C49.2994 60.9993 49.1871 60.6949 48.9625 60.4573C48.7379 60.2196 48.4384 60.1008 48.0641 60.1008C47.6149 60.1008 47.2649 60.2294 47.0143 60.4866C46.7669 60.7405 46.6432 61.0953 46.6432 61.551H45.7399C45.7399 60.8967 45.9498 60.3678 46.3698 59.9641C46.7929 59.5605 47.3577 59.3586 48.0641 59.3586C48.7249 59.3586 49.2474 59.5328 49.6315 59.8811C50.0156 60.2262 50.2076 60.6868 50.2076 61.2629C50.2076 61.9628 49.7617 62.7961 48.8698 63.7629L46.9655 65.8284H50.5348V66.5657ZM55.9498 63.5334C55.9498 64.5914 55.7692 65.3775 55.4078 65.8918C55.0465 66.4062 54.4817 66.6633 53.7135 66.6633C52.955 66.6633 52.3935 66.4127 52.0289 65.9114C51.6643 65.4068 51.4755 64.6549 51.4625 63.6555V62.4495C51.4625 61.4045 51.6432 60.6282 52.0045 60.1204C52.3658 59.6125 52.9323 59.3586 53.7037 59.3586C54.4687 59.3586 55.0319 59.6044 55.3932 60.0959C55.7545 60.5842 55.9401 61.3394 55.9498 62.3616V63.5334ZM55.0465 62.2981C55.0465 61.5331 54.9391 60.9765 54.7242 60.6282C54.5094 60.2766 54.1692 60.1008 53.7037 60.1008C53.2415 60.1008 52.9046 60.275 52.693 60.6233C52.4814 60.9716 52.3724 61.5071 52.3658 62.2297V63.675C52.3658 64.4433 52.4765 65.0113 52.6979 65.3792C52.9225 65.7437 53.261 65.926 53.7135 65.926C54.1595 65.926 54.4899 65.7535 54.7047 65.4084C54.9228 65.0634 55.0367 64.5198 55.0465 63.7776V62.2981ZM61.7653 66.5657H57.1071V65.9163L59.568 63.1819C59.9326 62.7685 60.1832 62.4332 60.3199 62.176C60.4599 61.9156 60.5299 61.6471 60.5299 61.3704C60.5299 60.9993 60.4176 60.6949 60.193 60.4573C59.9684 60.2196 59.6689 60.1008 59.2946 60.1008C58.8453 60.1008 58.4954 60.2294 58.2448 60.4866C57.9974 60.7405 57.8737 61.0953 57.8737 61.551H56.9703C56.9703 60.8967 57.1803 60.3678 57.6002 59.9641C58.0234 59.5605 58.5882 59.3586 59.2946 59.3586C59.9554 59.3586 60.4778 59.5328 60.8619 59.8811C61.2461 60.2262 61.4381 60.6868 61.4381 61.2629C61.4381 61.9628 60.9921 62.7961 60.1002 63.7629L58.1959 65.8284H61.7653V66.5657ZM63.1373 63.0012L63.4987 59.4563H67.1412V60.2913H64.2653L64.0504 62.2297C64.3987 62.0247 64.7942 61.9221 65.2369 61.9221C65.8847 61.9221 66.399 62.137 66.7799 62.5667C67.1608 62.9931 67.3512 63.5709 67.3512 64.3C67.3512 65.0325 67.1526 65.6103 66.7555 66.0334C66.3616 66.4534 65.8099 66.6633 65.1002 66.6633C64.472 66.6633 63.9593 66.4892 63.5621 66.1409C63.165 65.7926 62.9388 65.3108 62.8834 64.6956H63.7379C63.7933 65.1025 63.9381 65.4101 64.1725 65.6184C64.4069 65.8235 64.7161 65.926 65.1002 65.926C65.5201 65.926 65.8489 65.7828 66.0865 65.4963C66.3274 65.2099 66.4479 64.8144 66.4479 64.3098C66.4479 63.8346 66.3177 63.4537 66.0573 63.1672C65.8001 62.8775 65.4567 62.7327 65.027 62.7327C64.6331 62.7327 64.3239 62.8189 64.0992 62.9915L63.86 63.1868L63.1373 63.0012Z" fill="white"/>
<path d="M31.6969 153.585V156.369H30.7594V149.259H33.3815C34.1595 149.259 34.7682 149.458 35.2076 149.855C35.6503 150.252 35.8717 150.778 35.8717 151.432C35.8717 152.122 35.6552 152.654 35.2223 153.029C34.7926 153.4 34.1757 153.585 33.3717 153.585H31.6969ZM31.6969 152.819H33.3815C33.8828 152.819 34.2669 152.702 34.5338 152.467C34.8007 152.23 34.9342 151.888 34.9342 151.442C34.9342 151.019 34.8007 150.68 34.5338 150.426C34.2669 150.172 33.9007 150.041 33.4352 150.031H31.6969V152.819ZM37.8297 151.725C38.2301 151.234 38.7509 150.988 39.3922 150.988C40.5087 150.988 41.0719 151.618 41.0817 152.877V156.369H40.1783V152.873C40.1751 152.492 40.0872 152.21 39.9147 152.028C39.7454 151.846 39.4801 151.754 39.1188 151.754C38.8258 151.754 38.5686 151.833 38.3473 151.989C38.1259 152.145 37.9534 152.35 37.8297 152.604V156.369H36.9264V148.869H37.8297V151.725ZM43.4156 156.369H42.5123V151.085H43.4156V156.369ZM42.4391 149.684C42.4391 149.538 42.483 149.414 42.5709 149.313C42.6621 149.212 42.7955 149.162 42.9713 149.162C43.1471 149.162 43.2806 149.212 43.3717 149.313C43.4628 149.414 43.5084 149.538 43.5084 149.684C43.5084 149.831 43.4628 149.953 43.3717 150.05C43.2806 150.148 43.1471 150.197 42.9713 150.197C42.7955 150.197 42.6621 150.148 42.5709 150.05C42.483 149.953 42.4391 149.831 42.4391 149.684ZM45.8473 156.369H44.944V148.869H45.8473V156.369ZM48.2789 156.369H47.3756V148.869H48.2789V156.369ZM50.7106 156.369H49.8073V151.085H50.7106V156.369ZM49.734 149.684C49.734 149.538 49.778 149.414 49.8658 149.313C49.957 149.212 50.0905 149.162 50.2662 149.162C50.442 149.162 50.5755 149.212 50.6666 149.313C50.7578 149.414 50.8033 149.538 50.8033 149.684C50.8033 149.831 50.7578 149.953 50.6666 150.05C50.5755 150.148 50.442 150.197 50.2662 150.197C50.0905 150.197 49.957 150.148 49.8658 150.05C49.778 149.953 49.734 149.831 49.734 149.684ZM56.6237 153.786C56.6237 154.59 56.4397 155.237 56.0719 155.729C55.7041 156.221 55.206 156.466 54.5778 156.466C53.9365 156.466 53.4319 156.263 53.0641 155.856V158.4H52.1608V151.085H52.986L53.0299 151.671C53.3977 151.216 53.9088 150.988 54.5631 150.988C55.1979 150.988 55.6992 151.227 56.067 151.706C56.4381 152.184 56.6237 152.85 56.6237 153.703V153.786ZM55.7203 153.683C55.7203 153.087 55.5934 152.617 55.3395 152.272C55.0856 151.927 54.7373 151.754 54.2946 151.754C53.7477 151.754 53.3375 151.997 53.0641 152.482V155.006C53.3343 155.488 53.7477 155.729 54.3043 155.729C54.7373 155.729 55.0807 155.558 55.3346 155.216C55.5918 154.871 55.7203 154.36 55.7203 153.683ZM62.4928 153.2C61.6888 152.969 61.1028 152.685 60.735 152.35C60.3704 152.012 60.1881 151.595 60.1881 151.1C60.1881 150.54 60.4111 150.078 60.8571 149.713C61.3063 149.346 61.889 149.162 62.6051 149.162C63.0934 149.162 63.528 149.256 63.9088 149.445C64.2929 149.634 64.5892 149.894 64.7975 150.226C65.0091 150.558 65.1149 150.921 65.1149 151.315H64.1725C64.1725 150.885 64.0358 150.548 63.7623 150.304C63.4889 150.057 63.1031 149.933 62.6051 149.933C62.1429 149.933 61.7815 150.036 61.5211 150.241C61.264 150.443 61.1354 150.724 61.1354 151.085C61.1354 151.375 61.2574 151.621 61.5016 151.823C61.749 152.021 62.1673 152.204 62.7565 152.37C63.3489 152.536 63.8112 152.72 64.1432 152.921C64.4785 153.12 64.7259 153.353 64.8854 153.62C65.0481 153.887 65.1295 154.201 65.1295 154.562C65.1295 155.138 64.9049 155.6 64.4557 155.949C64.0065 156.294 63.4059 156.466 62.6539 156.466C62.1656 156.466 61.7099 156.374 61.2867 156.188C60.8636 155.999 60.5364 155.742 60.3053 155.417C60.0774 155.091 59.9635 154.722 59.9635 154.308H60.9059C60.9059 154.738 61.0638 155.078 61.3795 155.329C61.6985 155.576 62.1233 155.7 62.6539 155.7C63.1487 155.7 63.528 155.599 63.7916 155.397C64.0553 155.195 64.1871 154.92 64.1871 154.572C64.1871 154.223 64.0651 153.955 63.8209 153.766C63.5768 153.574 63.1341 153.385 62.4928 153.2ZM67.0436 151.085L67.068 151.671C67.4554 151.216 67.9778 150.988 68.6354 150.988C69.3743 150.988 69.8772 151.271 70.1442 151.837C70.3199 151.583 70.5478 151.378 70.8278 151.222C71.111 151.066 71.4446 150.988 71.8287 150.988C72.9876 150.988 73.5768 151.601 73.5963 152.829V156.369H72.693V152.882C72.693 152.505 72.6067 152.223 72.4342 152.038C72.2617 151.849 71.972 151.754 71.5651 151.754C71.2298 151.754 70.9515 151.855 70.7301 152.057C70.5087 152.256 70.3802 152.524 70.3444 152.863V156.369H69.4362V152.907C69.4362 152.139 69.0602 151.754 68.3082 151.754C67.7158 151.754 67.3105 152.007 67.0924 152.511V156.369H66.1891V151.085H67.0436ZM75.9449 156.369H75.0416V151.085H75.9449V156.369ZM74.9684 149.684C74.9684 149.538 75.0123 149.414 75.1002 149.313C75.1914 149.212 75.3248 149.162 75.5006 149.162C75.6764 149.162 75.8099 149.212 75.901 149.313C75.9921 149.414 76.0377 149.538 76.0377 149.684C76.0377 149.831 75.9921 149.953 75.901 150.05C75.8099 150.148 75.6764 150.197 75.5006 150.197C75.3248 150.197 75.1914 150.148 75.1002 150.05C75.0123 149.953 74.9684 149.831 74.9684 149.684ZM78.6207 149.806V151.085H79.6071V151.784H78.6207V155.06C78.6207 155.272 78.6647 155.431 78.7526 155.539C78.8405 155.643 78.9902 155.695 79.2018 155.695C79.3059 155.695 79.4492 155.675 79.6315 155.636V156.369C79.3938 156.434 79.1627 156.466 78.9381 156.466C78.5345 156.466 78.2301 156.344 78.025 156.1C77.8199 155.856 77.7174 155.509 77.7174 155.06V151.784H76.7555V151.085H77.7174V149.806H78.6207ZM81.5699 151.725C81.9703 151.234 82.4912 150.988 83.1324 150.988C84.249 150.988 84.8121 151.618 84.8219 152.877V156.369H83.9186V152.873C83.9153 152.492 83.8274 152.21 83.6549 152.028C83.4856 151.846 83.2203 151.754 82.859 151.754C82.566 151.754 82.3089 151.833 82.0875 151.989C81.8662 152.145 81.6936 152.35 81.5699 152.604V156.369H80.6666V148.869H81.5699V151.725Z" fill="white"/>
<rect x="238" y="180" width="100" height="30" rx="6" fill="#2DD3E3"/>
<path fill-rule="evenodd" clip-rule="evenodd" d="M314.616 195.5C314.616 195.155 314.896 194.875 315.241 194.875H323.991C324.336 194.875 324.616 195.155 324.616 195.5C324.616 195.845 324.336 196.125 323.991 196.125H315.241C314.896 196.125 314.616 195.845 314.616 195.5Z" fill="black"/>
<path d="M248.99 199V190.469H251.398C252.141 190.469 252.797 190.633 253.367 190.961C253.938 191.289 254.377 191.756 254.686 192.361C254.998 192.967 255.156 193.662 255.16 194.447V194.992C255.16 195.797 255.004 196.502 254.691 197.107C254.383 197.713 253.939 198.178 253.361 198.502C252.787 198.826 252.117 198.992 251.352 199H248.99ZM250.115 191.395V198.08H251.299C252.166 198.08 252.84 197.811 253.32 197.271C253.805 196.732 254.047 195.965 254.047 194.969V194.471C254.047 193.502 253.818 192.75 253.361 192.215C252.908 191.676 252.264 191.402 251.428 191.395H250.115ZM259.326 199.117C258.467 199.117 257.768 198.836 257.229 198.273C256.689 197.707 256.42 196.951 256.42 196.006V195.807C256.42 195.178 256.539 194.617 256.777 194.125C257.02 193.629 257.355 193.242 257.785 192.965C258.219 192.684 258.688 192.543 259.191 192.543C260.016 192.543 260.656 192.814 261.113 193.357C261.57 193.9 261.799 194.678 261.799 195.689V196.141H257.504C257.52 196.766 257.701 197.271 258.049 197.658C258.4 198.041 258.846 198.232 259.385 198.232C259.768 198.232 260.092 198.154 260.357 197.998C260.623 197.842 260.855 197.635 261.055 197.377L261.717 197.893C261.186 198.709 260.389 199.117 259.326 199.117ZM259.191 193.434C258.754 193.434 258.387 193.594 258.09 193.914C257.793 194.23 257.609 194.676 257.539 195.25H260.715V195.168C260.684 194.617 260.535 194.191 260.27 193.891C260.004 193.586 259.645 193.434 259.191 193.434ZM264.236 199H263.152V190H264.236V199ZM268.607 199.117C267.748 199.117 267.049 198.836 266.51 198.273C265.971 197.707 265.701 196.951 265.701 196.006V195.807C265.701 195.178 265.82 194.617 266.059 194.125C266.301 193.629 266.637 193.242 267.066 192.965C267.5 192.684 267.969 192.543 268.473 192.543C269.297 192.543 269.938 192.814 270.395 193.357C270.852 193.9 271.08 194.678 271.08 195.689V196.141H266.785C266.801 196.766 266.982 197.271 267.33 197.658C267.682 198.041 268.127 198.232 268.666 198.232C269.049 198.232 269.373 198.154 269.639 197.998C269.904 197.842 270.137 197.635 270.336 197.377L270.998 197.893C270.467 198.709 269.67 199.117 268.607 199.117ZM268.473 193.434C268.035 193.434 267.668 193.594 267.371 193.914C267.074 194.23 266.891 194.676 266.82 195.25H269.996V195.168C269.965 194.617 269.816 194.191 269.551 193.891C269.285 193.586 268.926 193.434 268.473 193.434ZM273.811 191.125V192.66H274.994V193.498H273.811V197.43C273.811 197.684 273.863 197.875 273.969 198.004C274.074 198.129 274.254 198.191 274.508 198.191C274.633 198.191 274.805 198.168 275.023 198.121V199C274.738 199.078 274.461 199.117 274.191 199.117C273.707 199.117 273.342 198.971 273.096 198.678C272.85 198.385 272.727 197.969 272.727 197.43V193.498H271.572V192.66H272.727V191.125H273.811ZM278.896 199.117C278.037 199.117 277.338 198.836 276.799 198.273C276.26 197.707 275.99 196.951 275.99 196.006V195.807C275.99 195.178 276.109 194.617 276.348 194.125C276.59 193.629 276.926 193.242 277.355 192.965C277.789 192.684 278.258 192.543 278.762 192.543C279.586 192.543 280.227 192.814 280.684 193.357C281.141 193.9 281.369 194.678 281.369 195.689V196.141H277.074C277.09 196.766 277.271 197.271 277.619 197.658C277.971 198.041 278.416 198.232 278.955 198.232C279.338 198.232 279.662 198.154 279.928 197.998C280.193 197.842 280.426 197.635 280.625 197.377L281.287 197.893C280.756 198.709 279.959 199.117 278.896 199.117ZM278.762 193.434C278.324 193.434 277.957 193.594 277.66 193.914C277.363 194.23 277.18 194.676 277.109 195.25H280.285V195.168C280.254 194.617 280.105 194.191 279.84 193.891C279.574 193.586 279.215 193.434 278.762 193.434ZM292.051 196.293C291.945 197.195 291.611 197.893 291.049 198.385C290.49 198.873 289.746 199.117 288.816 199.117C287.809 199.117 287 198.756 286.391 198.033C285.785 197.311 285.482 196.344 285.482 195.133V194.312C285.482 193.52 285.623 192.822 285.904 192.221C286.189 191.619 286.592 191.158 287.111 190.838C287.631 190.514 288.232 190.352 288.916 190.352C289.822 190.352 290.549 190.605 291.096 191.113C291.643 191.617 291.961 192.316 292.051 193.211H290.92C290.822 192.531 290.609 192.039 290.281 191.734C289.957 191.43 289.502 191.277 288.916 191.277C288.197 191.277 287.633 191.543 287.223 192.074C286.816 192.605 286.613 193.361 286.613 194.342V195.168C286.613 196.094 286.807 196.83 287.193 197.377C287.58 197.924 288.121 198.197 288.816 198.197C289.441 198.197 289.92 198.057 290.252 197.775C290.588 197.49 290.811 196.996 290.92 196.293H292.051ZM297.336 199C297.273 198.875 297.223 198.652 297.184 198.332C296.68 198.855 296.078 199.117 295.379 199.117C294.754 199.117 294.24 198.941 293.838 198.59C293.439 198.234 293.24 197.785 293.24 197.242C293.24 196.582 293.49 196.07 293.99 195.707C294.494 195.34 295.201 195.156 296.111 195.156H297.166V194.658C297.166 194.279 297.053 193.979 296.826 193.756C296.6 193.529 296.266 193.416 295.824 193.416C295.438 193.416 295.113 193.514 294.852 193.709C294.59 193.904 294.459 194.141 294.459 194.418H293.369C293.369 194.102 293.48 193.797 293.703 193.504C293.93 193.207 294.234 192.973 294.617 192.801C295.004 192.629 295.428 192.543 295.889 192.543C296.619 192.543 297.191 192.727 297.605 193.094C298.02 193.457 298.234 193.959 298.25 194.6V197.518C298.25 198.1 298.324 198.562 298.473 198.906V199H297.336ZM295.537 198.174C295.877 198.174 296.199 198.086 296.504 197.91C296.809 197.734 297.029 197.506 297.166 197.225V195.924H296.316C294.988 195.924 294.324 196.312 294.324 197.09C294.324 197.43 294.438 197.695 294.664 197.887C294.891 198.078 295.182 198.174 295.537 198.174ZM303.014 193.633C302.85 193.605 302.672 193.592 302.48 193.592C301.77 193.592 301.287 193.895 301.033 194.5V199H299.949V192.66H301.004L301.021 193.393C301.377 192.826 301.881 192.543 302.533 192.543C302.744 192.543 302.904 192.57 303.014 192.625V193.633ZM303.635 195.777C303.635 194.805 303.865 194.023 304.326 193.434C304.787 192.84 305.391 192.543 306.137 192.543C306.879 192.543 307.467 192.797 307.9 193.305V190H308.984V199H307.988L307.936 198.32C307.502 198.852 306.898 199.117 306.125 199.117C305.391 199.117 304.791 198.816 304.326 198.215C303.865 197.613 303.635 196.828 303.635 195.859V195.777ZM304.719 195.9C304.719 196.619 304.867 197.182 305.164 197.588C305.461 197.994 305.871 198.197 306.395 198.197C307.082 198.197 307.584 197.889 307.9 197.271V194.359C307.576 193.762 307.078 193.463 306.406 193.463C305.875 193.463 305.461 193.668 305.164 194.078C304.867 194.488 304.719 195.096 304.719 195.9Z" fill="black"/>
</svg>
