<svg width="45" height="45" viewBox="0 0 45 45" fill="none" xmlns="http://www.w3.org/2000/svg">
<path d="M40.3125 45H4.6875C2.10188 45 0 42.8981 0 40.3125V4.6875C0 2.10188 2.10188 0 4.6875 0H40.3125C42.8981 0 45 2.10188 45 4.6875V40.3125C45 42.8981 42.8981 45 40.3125 45ZM4.6875 1.875C3.13687 1.875 1.875 3.13687 1.875 4.6875V40.3125C1.875 41.8631 3.13687 43.125 4.6875 43.125H40.3125C41.8631 43.125 43.125 41.8631 43.125 40.3125V4.6875C43.125 3.13687 41.8631 1.875 40.3125 1.875H4.6875Z" fill="black"/>
</svg>
