<svg width="350" height="224" viewBox="0 0 350 224" fill="none" xmlns="http://www.w3.org/2000/svg">
<path d="M0 4.99999C0 2.23857 2.23858 0 5 0H345C347.761 0 350 2.23858 350 5V218.355C350 221.117 347.761 223.355 345 223.355H4.99999C2.23857 223.355 0 221.117 0 218.355V4.99999Z" fill="#FFD260"/>
<mask id="mask0_604_120" style="mask-type:alpha" maskUnits="userSpaceOnUse" x="0" y="0" width="350" height="224">
<rect width="350" height="223.355" rx="5" fill="#39B8FF"/>
</mask>
<g mask="url(#mask0_604_120)">
<path d="M350 25.3293C307.853 153.587 65.6251 8.05961 -1.88729 195.958H-13.8157V239.474H350V25.3293Z" fill="#FFBD12"/>
</g>
<circle cx="286.678" cy="44.9028" r="17.2697" fill="#2DD3E3"/>
<circle cx="305.099" cy="44.9013" r="17.2697" fill="#FEE89E"/>
<path d="M32.8816 105.988L34.2878 103.673H35.5535L33.4792 106.808L35.6179 110.013H34.364L32.8992 107.64L31.4343 110.013H30.1746L32.3132 106.808L30.239 103.673H31.4929L32.8816 105.988ZM38.8347 105.988L40.241 103.673H41.5066L39.4324 106.808L41.571 110.013H40.3171L38.8523 107.64L37.3875 110.013H36.1277L38.2664 106.808L36.1921 103.673H37.446L38.8347 105.988ZM44.7878 105.988L46.1941 103.673H47.4597L45.3855 106.808L47.5242 110.013H46.2703L44.8054 107.64L43.3406 110.013H42.0808L44.2195 106.808L42.1453 103.673H43.3992L44.7878 105.988ZM50.741 105.988L52.1472 103.673H53.4128L51.3386 106.808L53.4773 110.013H52.2234L50.7585 107.64L49.2937 110.013H48.0339L50.1726 106.808L48.0984 103.673H49.3523L50.741 105.988ZM59.6707 105.988L61.0769 103.673H62.3425L60.2683 106.808L62.407 110.013H61.1531L59.6882 107.64L58.2234 110.013H56.9636L59.1023 106.808L57.0281 103.673H58.282L59.6707 105.988ZM65.6238 105.988L67.03 103.673H68.2957L66.2214 106.808L68.3601 110.013H67.1062L65.6414 107.64L64.1765 110.013H62.9167L65.0554 106.808L62.9812 103.673H64.2351L65.6238 105.988ZM71.5769 105.988L72.9832 103.673H74.2488L72.1746 106.808L74.3132 110.013H73.0593L71.5945 107.64L70.1296 110.013H68.8699L71.0085 106.808L68.9343 103.673H70.1882L71.5769 105.988ZM77.53 105.988L78.9363 103.673H80.2019L78.1277 106.808L80.2664 110.013H79.0125L77.5476 107.64L76.0828 110.013H74.823L76.9617 106.808L74.8875 103.673H76.1414L77.53 105.988ZM86.4597 105.988L87.866 103.673H89.1316L87.0574 106.808L89.196 110.013H87.9421L86.4773 107.64L85.0125 110.013H83.7527L85.8914 106.808L83.8171 103.673H85.071L86.4597 105.988ZM92.4128 105.988L93.8191 103.673H95.0847L93.0105 106.808L95.1492 110.013H93.8953L92.4304 107.64L90.9656 110.013H89.7058L91.8445 106.808L89.7703 103.673H91.0242L92.4128 105.988ZM98.366 105.988L99.7722 103.673H101.038L98.9636 106.808L101.102 110.013H99.8484L98.3835 107.64L96.9187 110.013H95.6589L97.7976 106.808L95.7234 103.673H96.9773L98.366 105.988ZM104.319 105.988L105.725 103.673H106.991L104.917 106.808L107.055 110.013H105.802L104.337 107.64L102.872 110.013H101.612L103.751 106.808L101.677 103.673H102.93L104.319 105.988ZM114.573 110.013H113.483V102.789L111.298 103.591V102.607L114.403 101.441H114.573V110.013ZM121.903 106.263C121.677 106.533 121.405 106.75 121.089 106.914C120.776 107.078 120.432 107.16 120.057 107.16C119.565 107.16 119.135 107.039 118.768 106.796C118.405 106.554 118.124 106.214 117.925 105.777C117.725 105.335 117.626 104.849 117.626 104.318C117.626 103.748 117.733 103.234 117.948 102.777C118.167 102.32 118.475 101.97 118.874 101.728C119.272 101.486 119.737 101.365 120.268 101.365C121.112 101.365 121.776 101.681 122.26 102.314C122.749 102.943 122.993 103.802 122.993 104.892V105.208C122.993 106.869 122.665 108.082 122.009 108.847C121.352 109.609 120.362 110 119.038 110.019H118.827V109.105H119.055C119.95 109.089 120.637 108.857 121.118 108.408C121.598 107.955 121.86 107.24 121.903 106.263ZM120.233 106.263C120.596 106.263 120.93 106.152 121.235 105.929C121.544 105.707 121.768 105.431 121.909 105.103V104.669C121.909 103.958 121.755 103.38 121.446 102.935C121.137 102.49 120.747 102.267 120.274 102.267C119.798 102.267 119.415 102.451 119.126 102.818C118.837 103.181 118.692 103.662 118.692 104.259C118.692 104.841 118.831 105.322 119.108 105.701C119.389 106.076 119.764 106.263 120.233 106.263ZM129.661 103.708C129.661 104.134 129.548 104.513 129.321 104.845C129.098 105.177 128.796 105.437 128.413 105.625C128.858 105.816 129.21 106.095 129.468 106.462C129.729 106.83 129.86 107.246 129.86 107.71C129.86 108.449 129.61 109.037 129.11 109.474C128.614 109.912 127.96 110.13 127.147 110.13C126.327 110.13 125.669 109.912 125.173 109.474C124.68 109.033 124.434 108.445 124.434 107.71C124.434 107.25 124.559 106.833 124.809 106.462C125.063 106.091 125.413 105.81 125.858 105.619C125.479 105.431 125.18 105.171 124.962 104.839C124.743 104.507 124.634 104.13 124.634 103.708C124.634 102.99 124.864 102.419 125.325 101.998C125.786 101.576 126.393 101.365 127.147 101.365C127.897 101.365 128.503 101.576 128.964 101.998C129.428 102.419 129.661 102.99 129.661 103.708ZM128.776 107.687C128.776 107.21 128.624 106.822 128.319 106.521C128.018 106.22 127.624 106.07 127.135 106.07C126.647 106.07 126.255 106.218 125.958 106.515C125.665 106.812 125.518 107.203 125.518 107.687C125.518 108.171 125.661 108.552 125.946 108.83C126.235 109.107 126.635 109.246 127.147 109.246C127.655 109.246 128.053 109.107 128.343 108.83C128.632 108.548 128.776 108.167 128.776 107.687ZM127.147 102.255C126.721 102.255 126.376 102.388 126.11 102.654C125.848 102.916 125.718 103.273 125.718 103.726C125.718 104.16 125.846 104.511 126.104 104.781C126.366 105.046 126.714 105.179 127.147 105.179C127.581 105.179 127.927 105.046 128.184 104.781C128.446 104.511 128.577 104.16 128.577 103.726C128.577 103.292 128.442 102.939 128.173 102.666C127.903 102.392 127.561 102.255 127.147 102.255ZM132.802 105.22H133.616C134.128 105.212 134.53 105.078 134.823 104.816C135.116 104.554 135.262 104.201 135.262 103.755C135.262 102.755 134.764 102.255 133.768 102.255C133.3 102.255 132.925 102.39 132.643 102.66C132.366 102.925 132.227 103.279 132.227 103.72H131.143C131.143 103.044 131.389 102.484 131.882 102.039C132.378 101.589 133.007 101.365 133.768 101.365C134.573 101.365 135.204 101.578 135.661 102.003C136.118 102.429 136.346 103.021 136.346 103.779C136.346 104.15 136.225 104.509 135.983 104.857C135.745 105.205 135.419 105.464 135.005 105.636C135.473 105.785 135.835 106.031 136.089 106.375C136.346 106.718 136.475 107.138 136.475 107.634C136.475 108.4 136.225 109.007 135.725 109.457C135.225 109.906 134.575 110.13 133.774 110.13C132.973 110.13 132.321 109.914 131.817 109.48C131.317 109.046 131.067 108.474 131.067 107.763H132.157C132.157 108.212 132.303 108.572 132.596 108.841C132.889 109.111 133.282 109.246 133.774 109.246C134.298 109.246 134.698 109.109 134.975 108.835C135.253 108.562 135.391 108.169 135.391 107.658C135.391 107.162 135.239 106.781 134.934 106.515C134.63 106.25 134.19 106.113 133.616 106.105H132.802V105.22Z" fill="white"/>
<path d="M33.4939 66.5657H32.5857V60.5452L30.7644 61.2141V60.3938L33.3523 59.4221H33.4939V66.5657ZM40.5984 63.5334C40.5984 64.5914 40.4177 65.3775 40.0564 65.8918C39.6951 66.4062 39.1303 66.6633 38.3621 66.6633C37.6036 66.6633 37.0421 66.4127 36.6775 65.9114C36.3129 65.4068 36.1241 64.6549 36.1111 63.6555V62.4495C36.1111 61.4045 36.2917 60.6282 36.6531 60.1204C37.0144 59.6125 37.5808 59.3586 38.3523 59.3586C39.1173 59.3586 39.6804 59.6044 40.0417 60.0959C40.4031 60.5842 40.5886 61.3394 40.5984 62.3616V63.5334ZM39.6951 62.2981C39.6951 61.5331 39.5876 60.9765 39.3728 60.6282C39.158 60.2766 38.8178 60.1008 38.3523 60.1008C37.8901 60.1008 37.5531 60.275 37.3416 60.6233C37.13 60.9716 37.0209 61.5071 37.0144 62.2297V63.675C37.0144 64.4433 37.1251 65.0113 37.3464 65.3792C37.571 65.7437 37.9096 65.926 38.3621 65.926C38.808 65.926 39.1384 65.7535 39.3533 65.4084C39.5714 65.0634 39.6853 64.5198 39.6951 63.7776V62.2981ZM42.0291 67.176H41.2527L44.2214 59.4563H44.9929L42.0291 67.176ZM50.5349 66.5657H45.8767V65.9163L48.3376 63.1819C48.7022 62.7685 48.9529 62.4332 49.0896 62.176C49.2296 61.9156 49.2996 61.6471 49.2996 61.3704C49.2996 60.9993 49.1873 60.6949 48.9626 60.4573C48.738 60.2196 48.4386 60.1008 48.0642 60.1008C47.615 60.1008 47.2651 60.2294 47.0144 60.4866C46.767 60.7405 46.6433 61.0953 46.6433 61.551H45.74C45.74 60.8967 45.95 60.3678 46.3699 59.9641C46.7931 59.5605 47.3578 59.3586 48.0642 59.3586C48.725 59.3586 49.2475 59.5328 49.6316 59.8811C50.0157 60.2262 50.2078 60.6868 50.2078 61.2629C50.2078 61.9628 49.7618 62.7961 48.8699 63.7629L46.9656 65.8284H50.5349V66.5657ZM55.95 63.5334C55.95 64.5914 55.7693 65.3775 55.408 65.8918C55.0466 66.4062 54.4819 66.6633 53.7136 66.6633C52.9552 66.6633 52.3936 66.4127 52.0291 65.9114C51.6645 65.4068 51.4757 64.6549 51.4626 63.6555V62.4495C51.4626 61.4045 51.6433 60.6282 52.0046 60.1204C52.366 59.6125 52.9324 59.3586 53.7039 59.3586C54.4688 59.3586 55.032 59.6044 55.3933 60.0959C55.7546 60.5842 55.9402 61.3394 55.95 62.3616V63.5334ZM55.0466 62.2981C55.0466 61.5331 54.9392 60.9765 54.7244 60.6282C54.5095 60.2766 54.1694 60.1008 53.7039 60.1008C53.2416 60.1008 52.9047 60.275 52.6931 60.6233C52.4815 60.9716 52.3725 61.5071 52.366 62.2297V63.675C52.366 64.4433 52.4766 65.0113 52.698 65.3792C52.9226 65.7437 53.2611 65.926 53.7136 65.926C54.1596 65.926 54.49 65.7535 54.7048 65.4084C54.9229 65.0634 55.0369 64.5198 55.0466 63.7776V62.2981ZM61.7654 66.5657H57.1072V65.9163L59.5681 63.1819C59.9327 62.7685 60.1833 62.4332 60.3201 62.176C60.46 61.9156 60.53 61.6471 60.53 61.3704C60.53 60.9993 60.4177 60.6949 60.1931 60.4573C59.9685 60.2196 59.669 60.1008 59.2947 60.1008C58.8455 60.1008 58.4955 60.2294 58.2449 60.4866C57.9975 60.7405 57.8738 61.0953 57.8738 61.551H56.9705C56.9705 60.8967 57.1804 60.3678 57.6003 59.9641C58.0235 59.5605 58.5883 59.3586 59.2947 59.3586C59.9555 59.3586 60.4779 59.5328 60.8621 59.8811C61.2462 60.2262 61.4382 60.6868 61.4382 61.2629C61.4382 61.9628 60.9923 62.7961 60.1003 63.7629L58.196 65.8284H61.7654V66.5657ZM63.1375 63.0012L63.4988 59.4563H67.1414V60.2913H64.2654L64.0505 62.2297C64.3988 62.0247 64.7944 61.9221 65.2371 61.9221C65.8848 61.9221 66.3992 62.137 66.78 62.5667C67.1609 62.9931 67.3513 63.5709 67.3513 64.3C67.3513 65.0325 67.1528 65.6103 66.7556 66.0334C66.3617 66.4534 65.81 66.6633 65.1003 66.6633C64.4721 66.6633 63.9594 66.4892 63.5623 66.1409C63.1651 65.7926 62.9389 65.3108 62.8835 64.6956H63.738C63.7934 65.1025 63.9382 65.4101 64.1726 65.6184C64.407 65.8235 64.7162 65.926 65.1003 65.926C65.5203 65.926 65.849 65.7828 66.0867 65.4963C66.3276 65.2099 66.448 64.8144 66.448 64.3098C66.448 63.8346 66.3178 63.4537 66.0574 63.1672C65.8002 62.8775 65.4568 62.7327 65.0271 62.7327C64.6332 62.7327 64.324 62.8189 64.0994 62.9915L63.8601 63.1868L63.1375 63.0012Z" fill="white"/>
<path d="M36.2234 156.369H35.281L31.7019 150.89V156.369H30.7595V149.259H31.7019L35.2908 154.762V149.259H36.2234V156.369ZM41.0085 156.369C40.9565 156.264 40.9141 156.079 40.8816 155.812C40.4617 156.248 39.9604 156.466 39.3777 156.466C38.8569 156.466 38.4288 156.32 38.0935 156.027C37.7615 155.731 37.5955 155.356 37.5955 154.904C37.5955 154.354 37.8038 153.927 38.2205 153.625C38.6404 153.319 39.2296 153.166 39.988 153.166H40.8669V152.75C40.8669 152.435 40.7725 152.184 40.5837 151.999C40.3949 151.81 40.1166 151.715 39.7488 151.715C39.4265 151.715 39.1563 151.797 38.9382 151.959C38.7201 152.122 38.6111 152.319 38.6111 152.55H37.7029C37.7029 152.287 37.7957 152.033 37.9812 151.789C38.17 151.541 38.4239 151.346 38.7429 151.203C39.0652 151.059 39.4184 150.988 39.8025 150.988C40.4112 150.988 40.8881 151.141 41.2332 151.447C41.5782 151.75 41.7572 152.168 41.7703 152.702V155.133C41.7703 155.618 41.8321 156.004 41.9558 156.291V156.369H41.0085ZM39.5095 155.68C39.7927 155.68 40.0613 155.607 40.3152 155.46C40.5691 155.314 40.753 155.124 40.8669 154.889V153.805H40.1589C39.0522 153.805 38.4988 154.129 38.4988 154.777C38.4988 155.06 38.5932 155.281 38.782 155.441C38.9708 155.6 39.2133 155.68 39.5095 155.68ZM44.4119 149.806V151.085H45.3982V151.784H44.4119V155.06C44.4119 155.272 44.4558 155.431 44.5437 155.539C44.6316 155.643 44.7813 155.695 44.9929 155.695C45.0971 155.695 45.2403 155.675 45.4226 155.636V156.369C45.185 156.434 44.9539 156.466 44.7292 156.466C44.3256 156.466 44.0212 156.344 43.8162 156.1C43.6111 155.856 43.5085 155.509 43.5085 155.06V151.784H42.5466V151.085H43.5085V149.806H44.4119ZM49.7195 156.369C49.6674 156.264 49.6251 156.079 49.5925 155.812C49.1726 156.248 48.6713 156.466 48.0886 156.466C47.5678 156.466 47.1397 156.32 46.8044 156.027C46.4724 155.731 46.3064 155.356 46.3064 154.904C46.3064 154.354 46.5147 153.927 46.9314 153.625C47.3513 153.319 47.9405 153.166 48.699 153.166H49.5779V152.75C49.5779 152.435 49.4835 152.184 49.2947 151.999C49.1059 151.81 48.8276 151.715 48.4597 151.715C48.1375 151.715 47.8673 151.797 47.6492 151.959C47.4311 152.122 47.322 152.319 47.322 152.55H46.4138C46.4138 152.287 46.5066 152.033 46.6921 151.789C46.8809 151.541 47.1348 151.346 47.4539 151.203C47.7761 151.059 48.1293 150.988 48.5134 150.988C49.1222 150.988 49.599 151.141 49.9441 151.447C50.2891 151.75 50.4682 152.168 50.4812 152.702V155.133C50.4812 155.618 50.5431 156.004 50.6667 156.291V156.369H49.7195ZM48.2205 155.68C48.5037 155.68 48.7722 155.607 49.0261 155.46C49.28 155.314 49.4639 155.124 49.5779 154.889V153.805H48.8699C47.7631 153.805 47.2097 154.129 47.2097 154.777C47.2097 155.06 47.3041 155.281 47.4929 155.441C47.6817 155.6 47.9242 155.68 48.2205 155.68ZM54.9734 154.967C54.9734 154.723 54.8806 154.534 54.6951 154.401C54.5128 154.264 54.1921 154.147 53.7332 154.049C53.2774 153.952 52.9145 153.834 52.6443 153.698C52.3774 153.561 52.1788 153.398 52.0486 153.209C51.9216 153.021 51.8582 152.796 51.8582 152.536C51.8582 152.103 52.0404 151.736 52.405 151.437C52.7729 151.138 53.2416 150.988 53.8113 150.988C54.4102 150.988 54.8953 151.142 55.2664 151.452C55.6407 151.761 55.8279 152.156 55.8279 152.638H54.9197C54.9197 152.391 54.8139 152.178 54.6023 151.999C54.394 151.819 54.1303 151.73 53.8113 151.73C53.4825 151.73 53.2253 151.802 53.0398 151.945C52.8542 152.088 52.7615 152.275 52.7615 152.506C52.7615 152.724 52.8477 152.889 53.0203 153C53.1928 153.11 53.5037 153.216 53.9529 153.317C54.4054 153.418 54.7716 153.538 55.0515 153.678C55.3315 153.818 55.5382 153.987 55.6716 154.186C55.8083 154.381 55.8767 154.621 55.8767 154.904C55.8767 155.376 55.6879 155.755 55.3103 156.042C54.9327 156.325 54.4428 156.466 53.8406 156.466C53.4174 156.466 53.0431 156.391 52.7175 156.242C52.392 156.092 52.1365 155.884 51.9509 155.617C51.7686 155.347 51.6775 155.055 51.6775 154.743H52.5808C52.5971 155.045 52.7175 155.286 52.9421 155.465C53.17 155.641 53.4695 155.729 53.8406 155.729C54.1824 155.729 54.4558 155.661 54.6609 155.524C54.8692 155.384 54.9734 155.198 54.9734 154.967ZM57.9568 151.725C58.3572 151.234 58.878 150.988 59.5193 150.988C60.6358 150.988 61.199 151.618 61.2087 152.877V156.369H60.3054V152.873C60.3022 152.492 60.2143 152.21 60.0417 152.028C59.8725 151.846 59.6072 151.754 59.2458 151.754C58.9529 151.754 58.6957 151.833 58.4744 151.989C58.253 152.145 58.0805 152.35 57.9568 152.604V156.369H57.0535V148.869H57.9568V151.725ZM65.823 156.369C65.7709 156.264 65.7286 156.079 65.696 155.812C65.2761 156.248 64.7748 156.466 64.1921 156.466C63.6713 156.466 63.2432 156.32 62.908 156.027C62.5759 155.731 62.4099 155.356 62.4099 154.904C62.4099 154.354 62.6182 153.927 63.0349 153.625C63.4548 153.319 64.044 153.166 64.8025 153.166H65.6814V152.75C65.6814 152.435 65.587 152.184 65.3982 151.999C65.2094 151.81 64.9311 151.715 64.5632 151.715C64.241 151.715 63.9708 151.797 63.7527 151.959C63.5346 152.122 63.4255 152.319 63.4255 152.55H62.5173C62.5173 152.287 62.6101 152.033 62.7957 151.789C62.9845 151.541 63.2384 151.346 63.5574 151.203C63.8796 151.059 64.2328 150.988 64.6169 150.988C65.2257 150.988 65.7026 151.141 66.0476 151.447C66.3927 151.75 66.5717 152.168 66.5847 152.702V155.133C66.5847 155.618 66.6466 156.004 66.7703 156.291V156.369H65.823ZM64.324 155.68C64.6072 155.68 64.8757 155.607 65.1296 155.46C65.3835 155.314 65.5675 155.124 65.6814 154.889V153.805H64.9734C63.8666 153.805 63.3132 154.129 63.3132 154.777C63.3132 155.06 63.4076 155.281 63.5964 155.441C63.7852 155.6 64.0278 155.68 64.324 155.68ZM70.6228 156.369V149.259H72.947C73.7185 149.259 74.2979 149.419 74.6853 149.738C75.0759 150.057 75.2712 150.529 75.2712 151.154C75.2712 151.486 75.1768 151.78 74.988 152.038C74.7992 152.292 74.5421 152.488 74.2166 152.628C74.6007 152.736 74.9034 152.941 75.1248 153.244C75.3494 153.543 75.4617 153.901 75.4617 154.318C75.4617 154.956 75.255 155.457 74.8416 155.822C74.4281 156.186 73.8438 156.369 73.0886 156.369H70.6228ZM71.5603 153.043V155.602H73.1082C73.5444 155.602 73.8878 155.49 74.1384 155.265C74.3923 155.037 74.5193 154.725 74.5193 154.328C74.5193 153.472 74.0538 153.043 73.1228 153.043H71.5603ZM71.5603 152.292H72.9763C73.3865 152.292 73.7136 152.189 73.9578 151.984C74.2052 151.779 74.3289 151.5 74.3289 151.149C74.3289 150.758 74.2149 150.475 73.9871 150.299C73.7592 150.12 73.4125 150.031 72.947 150.031H71.5603V152.292ZM77.6931 156.369H76.7898V148.869H77.6931V156.369ZM82.405 156.369C82.3529 156.264 82.3106 156.079 82.2781 155.812C81.8582 156.248 81.3569 156.466 80.7742 156.466C80.2533 156.466 79.8253 156.32 79.49 156.027C79.158 155.731 78.9919 155.356 78.9919 154.904C78.9919 154.354 79.2003 153.927 79.6169 153.625C80.0369 153.319 80.6261 153.166 81.3845 153.166H82.2634V152.75C82.2634 152.435 82.169 152.184 81.9802 151.999C81.7914 151.81 81.5131 151.715 81.1453 151.715C80.823 151.715 80.5528 151.797 80.3347 151.959C80.1166 152.122 80.0076 152.319 80.0076 152.55H79.0994C79.0994 152.287 79.1921 152.033 79.3777 151.789C79.5665 151.541 79.8204 151.346 80.1394 151.203C80.4617 151.059 80.8149 150.988 81.199 150.988C81.8077 150.988 82.2846 151.141 82.6296 151.447C82.9747 151.75 83.1537 152.168 83.1667 152.702V155.133C83.1667 155.618 83.2286 156.004 83.3523 156.291V156.369H82.405ZM80.906 155.68C81.1892 155.68 81.4578 155.607 81.7117 155.46C81.9656 155.314 82.1495 155.124 82.2634 154.889V153.805H81.5554C80.4486 153.805 79.8953 154.129 79.8953 154.777C79.8953 155.06 79.9897 155.281 80.1785 155.441C80.3673 155.6 80.6098 155.68 80.906 155.68ZM86.7019 155.729C87.0242 155.729 87.3057 155.631 87.5466 155.436C87.7875 155.241 87.921 154.997 87.947 154.704H88.8015C88.7852 155.006 88.6811 155.294 88.489 155.568C88.297 155.841 88.0398 156.059 87.7175 156.222C87.3985 156.385 87.06 156.466 86.7019 156.466C85.9825 156.466 85.4096 156.227 84.9832 155.749C84.56 155.267 84.3484 154.609 84.3484 153.776V153.625C84.3484 153.11 84.4428 152.653 84.6316 152.252C84.8204 151.852 85.0906 151.541 85.4421 151.32C85.797 151.098 86.2153 150.988 86.697 150.988C87.2895 150.988 87.781 151.165 88.1716 151.52C88.5655 151.875 88.7755 152.335 88.8015 152.902H87.947C87.921 152.56 87.7908 152.28 87.5564 152.062C87.3253 151.841 87.0388 151.73 86.697 151.73C86.238 151.73 85.8816 151.896 85.6277 152.228C85.377 152.557 85.2517 153.034 85.2517 153.659V153.83C85.2517 154.438 85.377 154.907 85.6277 155.236C85.8783 155.565 86.2364 155.729 86.7019 155.729ZM91.2917 153.922L90.7253 154.513V156.369H89.822V148.869H90.7253V153.405L91.2087 152.824L92.8542 151.085H93.9529L91.8972 153.292L94.1921 156.369H93.1326L91.2917 153.922Z" fill="white"/>
<rect x="238" y="182" width="100" height="30" rx="6" fill="#2DD3E3"/>
<path fill-rule="evenodd" clip-rule="evenodd" d="M314.616 197.5C314.616 197.155 314.896 196.875 315.241 196.875H323.991C324.336 196.875 324.616 197.155 324.616 197.5C324.616 197.845 324.336 198.125 323.991 198.125H315.241C314.896 198.125 314.616 197.845 314.616 197.5Z" fill="black"/>
<path d="M248.99 201V192.469H251.398C252.141 192.469 252.797 192.633 253.367 192.961C253.938 193.289 254.377 193.756 254.686 194.361C254.998 194.967 255.156 195.662 255.16 196.447V196.992C255.16 197.797 255.004 198.502 254.691 199.107C254.383 199.713 253.939 200.178 253.361 200.502C252.787 200.826 252.117 200.992 251.352 201H248.99ZM250.115 193.395V200.08H251.299C252.166 200.08 252.84 199.811 253.32 199.271C253.805 198.732 254.047 197.965 254.047 196.969V196.471C254.047 195.502 253.818 194.75 253.361 194.215C252.908 193.676 252.264 193.402 251.428 193.395H250.115ZM259.326 201.117C258.467 201.117 257.768 200.836 257.229 200.273C256.689 199.707 256.42 198.951 256.42 198.006V197.807C256.42 197.178 256.539 196.617 256.777 196.125C257.02 195.629 257.355 195.242 257.785 194.965C258.219 194.684 258.688 194.543 259.191 194.543C260.016 194.543 260.656 194.814 261.113 195.357C261.57 195.9 261.799 196.678 261.799 197.689V198.141H257.504C257.52 198.766 257.701 199.271 258.049 199.658C258.4 200.041 258.846 200.232 259.385 200.232C259.768 200.232 260.092 200.154 260.357 199.998C260.623 199.842 260.855 199.635 261.055 199.377L261.717 199.893C261.186 200.709 260.389 201.117 259.326 201.117ZM259.191 195.434C258.754 195.434 258.387 195.594 258.09 195.914C257.793 196.23 257.609 196.676 257.539 197.25H260.715V197.168C260.684 196.617 260.535 196.191 260.27 195.891C260.004 195.586 259.645 195.434 259.191 195.434ZM264.236 201H263.152V192H264.236V201ZM268.607 201.117C267.748 201.117 267.049 200.836 266.51 200.273C265.971 199.707 265.701 198.951 265.701 198.006V197.807C265.701 197.178 265.82 196.617 266.059 196.125C266.301 195.629 266.637 195.242 267.066 194.965C267.5 194.684 267.969 194.543 268.473 194.543C269.297 194.543 269.938 194.814 270.395 195.357C270.852 195.9 271.08 196.678 271.08 197.689V198.141H266.785C266.801 198.766 266.982 199.271 267.33 199.658C267.682 200.041 268.127 200.232 268.666 200.232C269.049 200.232 269.373 200.154 269.639 199.998C269.904 199.842 270.137 199.635 270.336 199.377L270.998 199.893C270.467 200.709 269.67 201.117 268.607 201.117ZM268.473 195.434C268.035 195.434 267.668 195.594 267.371 195.914C267.074 196.23 266.891 196.676 266.82 197.25H269.996V197.168C269.965 196.617 269.816 196.191 269.551 195.891C269.285 195.586 268.926 195.434 268.473 195.434ZM273.811 193.125V194.66H274.994V195.498H273.811V199.43C273.811 199.684 273.863 199.875 273.969 200.004C274.074 200.129 274.254 200.191 274.508 200.191C274.633 200.191 274.805 200.168 275.023 200.121V201C274.738 201.078 274.461 201.117 274.191 201.117C273.707 201.117 273.342 200.971 273.096 200.678C272.85 200.385 272.727 199.969 272.727 199.43V195.498H271.572V194.66H272.727V193.125H273.811ZM278.896 201.117C278.037 201.117 277.338 200.836 276.799 200.273C276.26 199.707 275.99 198.951 275.99 198.006V197.807C275.99 197.178 276.109 196.617 276.348 196.125C276.59 195.629 276.926 195.242 277.355 194.965C277.789 194.684 278.258 194.543 278.762 194.543C279.586 194.543 280.227 194.814 280.684 195.357C281.141 195.9 281.369 196.678 281.369 197.689V198.141H277.074C277.09 198.766 277.271 199.271 277.619 199.658C277.971 200.041 278.416 200.232 278.955 200.232C279.338 200.232 279.662 200.154 279.928 199.998C280.193 199.842 280.426 199.635 280.625 199.377L281.287 199.893C280.756 200.709 279.959 201.117 278.896 201.117ZM278.762 195.434C278.324 195.434 277.957 195.594 277.66 195.914C277.363 196.23 277.18 196.676 277.109 197.25H280.285V197.168C280.254 196.617 280.105 196.191 279.84 195.891C279.574 195.586 279.215 195.434 278.762 195.434ZM292.051 198.293C291.945 199.195 291.611 199.893 291.049 200.385C290.49 200.873 289.746 201.117 288.816 201.117C287.809 201.117 287 200.756 286.391 200.033C285.785 199.311 285.482 198.344 285.482 197.133V196.312C285.482 195.52 285.623 194.822 285.904 194.221C286.189 193.619 286.592 193.158 287.111 192.838C287.631 192.514 288.232 192.352 288.916 192.352C289.822 192.352 290.549 192.605 291.096 193.113C291.643 193.617 291.961 194.316 292.051 195.211H290.92C290.822 194.531 290.609 194.039 290.281 193.734C289.957 193.43 289.502 193.277 288.916 193.277C288.197 193.277 287.633 193.543 287.223 194.074C286.816 194.605 286.613 195.361 286.613 196.342V197.168C286.613 198.094 286.807 198.83 287.193 199.377C287.58 199.924 288.121 200.197 288.816 200.197C289.441 200.197 289.92 200.057 290.252 199.775C290.588 199.49 290.811 198.996 290.92 198.293H292.051ZM297.336 201C297.273 200.875 297.223 200.652 297.184 200.332C296.68 200.855 296.078 201.117 295.379 201.117C294.754 201.117 294.24 200.941 293.838 200.59C293.439 200.234 293.24 199.785 293.24 199.242C293.24 198.582 293.49 198.07 293.99 197.707C294.494 197.34 295.201 197.156 296.111 197.156H297.166V196.658C297.166 196.279 297.053 195.979 296.826 195.756C296.6 195.529 296.266 195.416 295.824 195.416C295.438 195.416 295.113 195.514 294.852 195.709C294.59 195.904 294.459 196.141 294.459 196.418H293.369C293.369 196.102 293.48 195.797 293.703 195.504C293.93 195.207 294.234 194.973 294.617 194.801C295.004 194.629 295.428 194.543 295.889 194.543C296.619 194.543 297.191 194.727 297.605 195.094C298.02 195.457 298.234 195.959 298.25 196.6V199.518C298.25 200.1 298.324 200.562 298.473 200.906V201H297.336ZM295.537 200.174C295.877 200.174 296.199 200.086 296.504 199.91C296.809 199.734 297.029 199.506 297.166 199.225V197.924H296.316C294.988 197.924 294.324 198.312 294.324 199.09C294.324 199.43 294.438 199.695 294.664 199.887C294.891 200.078 295.182 200.174 295.537 200.174ZM303.014 195.633C302.85 195.605 302.672 195.592 302.48 195.592C301.77 195.592 301.287 195.895 301.033 196.5V201H299.949V194.66H301.004L301.021 195.393C301.377 194.826 301.881 194.543 302.533 194.543C302.744 194.543 302.904 194.57 303.014 194.625V195.633ZM303.635 197.777C303.635 196.805 303.865 196.023 304.326 195.434C304.787 194.84 305.391 194.543 306.137 194.543C306.879 194.543 307.467 194.797 307.9 195.305V192H308.984V201H307.988L307.936 200.32C307.502 200.852 306.898 201.117 306.125 201.117C305.391 201.117 304.791 200.816 304.326 200.215C303.865 199.613 303.635 198.828 303.635 197.859V197.777ZM304.719 197.9C304.719 198.619 304.867 199.182 305.164 199.588C305.461 199.994 305.871 200.197 306.395 200.197C307.082 200.197 307.584 199.889 307.9 199.271V196.359C307.576 195.762 307.078 195.463 306.406 195.463C305.875 195.463 305.461 195.668 305.164 196.078C304.867 196.488 304.719 197.096 304.719 197.9Z" fill="black"/>
</svg>
