<svg width="33" height="33" viewBox="0 0 33 33" fill="none" xmlns="http://www.w3.org/2000/svg">
<path d="M0.458252 16.5392C0.458252 7.65806 7.64035 0.458496 16.4999 0.458496C25.3595 0.458496 32.5416 7.65806 32.5416 16.5392C32.5416 24.8824 26.2031 31.7416 18.09 32.5418C18.1335 32.5342 18.1768 32.526 18.2201 32.5173V21.1552H22.3906L23.0147 16.3015H18.2201V13.2025C18.2201 11.7971 18.6092 10.8397 20.6198 10.8397L23.1836 10.8384V6.49731C22.7401 6.43796 21.2183 6.30601 19.4475 6.30601C15.751 6.30601 13.2198 8.56781 13.2198 12.7221V16.3015H9.03863V21.1552H13.2198V32.2834C5.93343 30.7658 0.458252 24.2934 0.458252 16.5392Z" fill="#1A1A1A"/>
</svg>
