<svg width="33" height="33" viewBox="0 0 33 33" fill="none" xmlns="http://www.w3.org/2000/svg">
<path d="M16.7257 13.3236V18.6754C16.7257 19.2282 17.1736 19.6761 17.7264 19.6754C19.5968 19.673 23.6062 19.668 25.5201 19.668C24.1418 23.7873 21.9993 26.03 16.7257 26.03C11.3887 26.03 7.22315 21.7633 7.22315 16.4995C7.22315 11.2371 11.3887 6.97037 16.7257 6.97037C19.5472 6.97037 21.3698 7.94865 23.0413 9.31174C24.3791 7.99238 24.2674 7.80372 27.6714 4.63274C24.7814 2.03899 20.9408 0.458496 16.7257 0.458496C7.74226 0.458496 0.458252 7.64005 0.458252 16.4995C0.458252 25.359 7.74226 32.5418 16.7257 32.5418C30.154 32.5418 33.4362 21.0111 32.3485 13.3236H16.7257Z" fill="#1A1A1A"/>
</svg>
