<svg width="34" height="34" viewBox="0 0 34 34" fill="none" xmlns="http://www.w3.org/2000/svg">
<path d="M0.500488 17.0402C0.500488 7.90538 7.88779 0.500122 17.0005 0.500122C26.1132 0.500122 33.5005 7.90538 33.5005 17.0402C33.5005 25.6218 26.9809 32.677 18.636 33.5001C18.6807 33.4922 18.7253 33.4838 18.7698 33.4749V21.7882H23.0595L23.7014 16.7957H18.7698V13.6082C18.7698 12.1627 19.17 11.1779 21.238 11.1779L23.8751 11.1766V6.71147C23.419 6.65043 21.8537 6.51471 20.0323 6.51471C16.2301 6.51471 13.6267 8.84112 13.6267 13.1141V16.7957H9.32602V21.7882H13.6267V33.2343C6.1321 31.6733 0.500488 25.016 0.500488 17.0402Z" fill="#2DD3E3"/>
</svg>
