<svg width="351" height="224" viewBox="0 0 351 224" fill="none" xmlns="http://www.w3.org/2000/svg">
<path d="M0 4.99999C0 2.23857 2.23858 0 5 0H345C347.761 0 350 2.23858 350 5V218.355C350 221.117 347.761 223.355 345 223.355H4.99999C2.23857 223.355 0 221.117 0 218.355V4.99999Z" fill="#5673DC"/>
<mask id="mask0_604_105" style="mask-type:alpha" maskUnits="userSpaceOnUse" x="0" y="0" width="351" height="224">
<rect x="0.322266" width="350" height="223.355" rx="5" fill="#4BA7DB"/>
</mask>
<g mask="url(#mask0_604_105)">
<path d="M349.816 25C307.669 153.258 65.441 7.73026 -2.07137 195.629H-13.9998V239.145H349.816V25Z" fill="#3558D5"/>
</g>
<path d="M32.8815 105.988L34.2877 103.673H35.5533L33.4791 106.808L35.6178 110.013H34.3639L32.899 107.64L31.4342 110.013H30.1744L32.3131 106.808L30.2389 103.673H31.4928L32.8815 105.988ZM38.8346 105.988L40.2408 103.673H41.5065L39.4323 106.808L41.5709 110.013H40.317L38.8522 107.64L37.3873 110.013H36.1276L38.2662 106.808L36.192 103.673H37.4459L38.8346 105.988ZM44.7877 105.988L46.194 103.673H47.4596L45.3854 106.808L47.524 110.013H46.2701L44.8053 107.64L43.3405 110.013H42.0807L44.2194 106.808L42.1451 103.673H43.399L44.7877 105.988ZM50.7408 105.988L52.1471 103.673H53.4127L51.3385 106.808L53.4772 110.013H52.2233L50.7584 107.64L49.2936 110.013H48.0338L50.1725 106.808L48.0983 103.673H49.3522L50.7408 105.988ZM59.6705 105.988L61.0768 103.673H62.3424L60.2682 106.808L62.4069 110.013H61.153L59.6881 107.64L58.2233 110.013H56.9635L59.1022 106.808L57.028 103.673H58.2819L59.6705 105.988ZM65.6237 105.988L67.0299 103.673H68.2955L66.2213 106.808L68.36 110.013H67.1061L65.6412 107.64L64.1764 110.013H62.9166L65.0553 106.808L62.9811 103.673H64.235L65.6237 105.988ZM71.5768 105.988L72.983 103.673H74.2487L72.1744 106.808L74.3131 110.013H73.0592L71.5944 107.64L70.1295 110.013H68.8698L71.0084 106.808L68.9342 103.673H70.1881L71.5768 105.988ZM77.5299 105.988L78.9362 103.673H80.2018L78.1276 106.808L80.2662 110.013H79.0123L77.5475 107.64L76.0826 110.013H74.8229L76.9615 106.808L74.8873 103.673H76.1412L77.5299 105.988ZM86.4596 105.988L87.8658 103.673H89.1315L87.0573 106.808L89.1959 110.013H87.942L86.4772 107.64L85.0123 110.013H83.7526L85.8912 106.808L83.817 103.673H85.0709L86.4596 105.988ZM92.4127 105.988L93.819 103.673H95.0846L93.0104 106.808L95.149 110.013H93.8951L92.4303 107.64L90.9655 110.013H89.7057L91.8444 106.808L89.7701 103.673H91.024L92.4127 105.988ZM98.3658 105.988L99.7721 103.673H101.038L98.9635 106.808L101.102 110.013H99.8483L98.3834 107.64L96.9186 110.013H95.6588L97.7975 106.808L95.7233 103.673H96.9772L98.3658 105.988ZM104.319 105.988L105.725 103.673H106.991L104.917 106.808L107.055 110.013H105.801L104.337 107.64L102.872 110.013H101.612L103.751 106.808L101.676 103.673H102.93L104.319 105.988ZM114.573 110.013H113.483V102.789L111.297 103.591V102.607L114.403 101.441H114.573V110.013ZM121.903 106.263C121.676 106.533 121.405 106.75 121.089 106.914C120.776 107.078 120.432 107.16 120.057 107.16C119.565 107.16 119.135 107.039 118.768 106.796C118.405 106.554 118.124 106.214 117.924 105.777C117.725 105.335 117.626 104.849 117.626 104.318C117.626 103.748 117.733 103.234 117.948 102.777C118.167 102.32 118.475 101.97 118.874 101.728C119.272 101.486 119.737 101.365 120.268 101.365C121.112 101.365 121.776 101.681 122.26 102.314C122.749 102.943 122.993 103.802 122.993 104.892V105.208C122.993 106.869 122.665 108.082 122.008 108.847C121.352 109.609 120.362 110 119.038 110.019H118.827V109.105H119.055C119.95 109.089 120.637 108.857 121.118 108.408C121.598 107.955 121.86 107.24 121.903 106.263ZM120.233 106.263C120.596 106.263 120.93 106.152 121.235 105.929C121.544 105.707 121.768 105.431 121.909 105.103V104.669C121.909 103.958 121.755 103.38 121.446 102.935C121.137 102.49 120.747 102.267 120.274 102.267C119.797 102.267 119.415 102.451 119.126 102.818C118.837 103.181 118.692 103.662 118.692 104.259C118.692 104.841 118.831 105.322 119.108 105.701C119.389 106.076 119.764 106.263 120.233 106.263ZM129.661 103.708C129.661 104.134 129.547 104.513 129.321 104.845C129.098 105.177 128.796 105.437 128.413 105.625C128.858 105.816 129.21 106.095 129.467 106.462C129.729 106.83 129.86 107.246 129.86 107.71C129.86 108.449 129.61 109.037 129.11 109.474C128.614 109.912 127.96 110.13 127.147 110.13C126.327 110.13 125.669 109.912 125.172 109.474C124.68 109.033 124.434 108.445 124.434 107.71C124.434 107.25 124.559 106.833 124.809 106.462C125.063 106.091 125.413 105.81 125.858 105.619C125.479 105.431 125.18 105.171 124.962 104.839C124.743 104.507 124.633 104.13 124.633 103.708C124.633 102.99 124.864 102.419 125.325 101.998C125.786 101.576 126.393 101.365 127.147 101.365C127.897 101.365 128.503 101.576 128.964 101.998C129.428 102.419 129.661 102.99 129.661 103.708ZM128.776 107.687C128.776 107.21 128.624 106.822 128.319 106.521C128.018 106.22 127.624 106.07 127.135 106.07C126.647 106.07 126.255 106.218 125.958 106.515C125.665 106.812 125.518 107.203 125.518 107.687C125.518 108.171 125.661 108.552 125.946 108.83C126.235 109.107 126.635 109.246 127.147 109.246C127.655 109.246 128.053 109.107 128.342 108.83C128.631 108.548 128.776 108.167 128.776 107.687ZM127.147 102.255C126.721 102.255 126.376 102.388 126.11 102.654C125.848 102.916 125.717 103.273 125.717 103.726C125.717 104.16 125.846 104.511 126.104 104.781C126.366 105.046 126.714 105.179 127.147 105.179C127.581 105.179 127.926 105.046 128.184 104.781C128.446 104.511 128.577 104.16 128.577 103.726C128.577 103.292 128.442 102.939 128.172 102.666C127.903 102.392 127.561 102.255 127.147 102.255ZM132.801 105.22H133.616C134.128 105.212 134.53 105.078 134.823 104.816C135.116 104.554 135.262 104.201 135.262 103.755C135.262 102.755 134.764 102.255 133.768 102.255C133.299 102.255 132.924 102.39 132.643 102.66C132.366 102.925 132.227 103.279 132.227 103.72H131.143C131.143 103.044 131.389 102.484 131.881 102.039C132.378 101.589 133.006 101.365 133.768 101.365C134.573 101.365 135.204 101.578 135.661 102.003C136.118 102.429 136.346 103.021 136.346 103.779C136.346 104.15 136.225 104.509 135.983 104.857C135.745 105.205 135.419 105.464 135.005 105.636C135.473 105.785 135.835 106.031 136.089 106.375C136.346 106.718 136.475 107.138 136.475 107.634C136.475 108.4 136.225 109.007 135.725 109.457C135.225 109.906 134.575 110.13 133.774 110.13C132.973 110.13 132.321 109.914 131.817 109.48C131.317 109.046 131.067 108.474 131.067 107.763H132.157C132.157 108.212 132.303 108.572 132.596 108.841C132.889 109.111 133.282 109.246 133.774 109.246C134.297 109.246 134.698 109.109 134.975 108.835C135.253 108.562 135.391 108.169 135.391 107.658C135.391 107.162 135.239 106.781 134.934 106.515C134.63 106.25 134.19 106.113 133.616 106.105H132.801V105.22Z" fill="white"/>
<path d="M33.4938 66.5657H32.5856V60.5452L30.7643 61.2141V60.3938L33.3522 59.4221H33.4938V66.5657ZM40.5983 63.5334C40.5983 64.5914 40.4176 65.3775 40.0563 65.8918C39.6949 66.4062 39.1302 66.6633 38.3619 66.6633C37.6035 66.6633 37.042 66.4127 36.6774 65.9114C36.3128 65.4068 36.124 64.6549 36.111 63.6555V62.4495C36.111 61.4045 36.2916 60.6282 36.653 60.1204C37.0143 59.6125 37.5807 59.3586 38.3522 59.3586C39.1171 59.3586 39.6803 59.6044 40.0416 60.0959C40.403 60.5842 40.5885 61.3394 40.5983 62.3616V63.5334ZM39.6949 62.2981C39.6949 61.5331 39.5875 60.9765 39.3727 60.6282C39.1578 60.2766 38.8177 60.1008 38.3522 60.1008C37.8899 60.1008 37.553 60.275 37.3414 60.6233C37.1298 60.9716 37.0208 61.5071 37.0143 62.2297V63.675C37.0143 64.4433 37.125 65.0113 37.3463 65.3792C37.5709 65.7437 37.9095 65.926 38.3619 65.926C38.8079 65.926 39.1383 65.7535 39.3531 65.4084C39.5712 65.0634 39.6852 64.5198 39.6949 63.7776V62.2981ZM42.0289 67.176H41.2526L44.2213 59.4563H44.9928L42.0289 67.176ZM50.5348 66.5657H45.8766V65.9163L48.3375 63.1819C48.7021 62.7685 48.9528 62.4332 49.0895 62.176C49.2295 61.9156 49.2994 61.6471 49.2994 61.3704C49.2994 60.9993 49.1871 60.6949 48.9625 60.4573C48.7379 60.2196 48.4384 60.1008 48.0641 60.1008C47.6149 60.1008 47.2649 60.2294 47.0143 60.4866C46.7669 60.7405 46.6432 61.0953 46.6432 61.551H45.7399C45.7399 60.8967 45.9498 60.3678 46.3698 59.9641C46.7929 59.5605 47.3577 59.3586 48.0641 59.3586C48.7249 59.3586 49.2474 59.5328 49.6315 59.8811C50.0156 60.2262 50.2076 60.6868 50.2076 61.2629C50.2076 61.9628 49.7617 62.7961 48.8698 63.7629L46.9655 65.8284H50.5348V66.5657ZM55.9498 63.5334C55.9498 64.5914 55.7692 65.3775 55.4078 65.8918C55.0465 66.4062 54.4817 66.6633 53.7135 66.6633C52.955 66.6633 52.3935 66.4127 52.0289 65.9114C51.6643 65.4068 51.4755 64.6549 51.4625 63.6555V62.4495C51.4625 61.4045 51.6432 60.6282 52.0045 60.1204C52.3658 59.6125 52.9323 59.3586 53.7037 59.3586C54.4687 59.3586 55.0319 59.6044 55.3932 60.0959C55.7545 60.5842 55.9401 61.3394 55.9498 62.3616V63.5334ZM55.0465 62.2981C55.0465 61.5331 54.9391 60.9765 54.7242 60.6282C54.5094 60.2766 54.1692 60.1008 53.7037 60.1008C53.2415 60.1008 52.9046 60.275 52.693 60.6233C52.4814 60.9716 52.3724 61.5071 52.3658 62.2297V63.675C52.3658 64.4433 52.4765 65.0113 52.6979 65.3792C52.9225 65.7437 53.261 65.926 53.7135 65.926C54.1595 65.926 54.4899 65.7535 54.7047 65.4084C54.9228 65.0634 55.0367 64.5198 55.0465 63.7776V62.2981ZM61.7653 66.5657H57.1071V65.9163L59.568 63.1819C59.9326 62.7685 60.1832 62.4332 60.3199 62.176C60.4599 61.9156 60.5299 61.6471 60.5299 61.3704C60.5299 60.9993 60.4176 60.6949 60.193 60.4573C59.9684 60.2196 59.6689 60.1008 59.2946 60.1008C58.8453 60.1008 58.4954 60.2294 58.2448 60.4866C57.9974 60.7405 57.8737 61.0953 57.8737 61.551H56.9703C56.9703 60.8967 57.1803 60.3678 57.6002 59.9641C58.0234 59.5605 58.5882 59.3586 59.2946 59.3586C59.9554 59.3586 60.4778 59.5328 60.8619 59.8811C61.2461 60.2262 61.4381 60.6868 61.4381 61.2629C61.4381 61.9628 60.9921 62.7961 60.1002 63.7629L58.1959 65.8284H61.7653V66.5657ZM63.1373 63.0012L63.4987 59.4563H67.1412V60.2913H64.2653L64.0504 62.2297C64.3987 62.0247 64.7942 61.9221 65.2369 61.9221C65.8847 61.9221 66.399 62.137 66.7799 62.5667C67.1608 62.9931 67.3512 63.5709 67.3512 64.3C67.3512 65.0325 67.1526 65.6103 66.7555 66.0334C66.3616 66.4534 65.8099 66.6633 65.1002 66.6633C64.472 66.6633 63.9593 66.4892 63.5621 66.1409C63.165 65.7926 62.9388 65.3108 62.8834 64.6956H63.7379C63.7933 65.1025 63.9381 65.4101 64.1725 65.6184C64.4069 65.8235 64.7161 65.926 65.1002 65.926C65.5201 65.926 65.8489 65.7828 66.0865 65.4963C66.3274 65.2099 66.4479 64.8144 66.4479 64.3098C66.4479 63.8346 66.3177 63.4537 66.0573 63.1672C65.8001 62.8775 65.4567 62.7327 65.027 62.7327C64.6331 62.7327 64.3239 62.8189 64.0992 62.9915L63.86 63.1868L63.1373 63.0012Z" fill="white"/>
<path d="M36.2233 156.369H35.2809L31.7018 150.89V156.369H30.7594V149.259H31.7018L35.2906 154.762V149.259H36.2233V156.369ZM41.0084 156.369C40.9563 156.264 40.914 156.079 40.8815 155.812C40.4615 156.248 39.9602 156.466 39.3776 156.466C38.8567 156.466 38.4287 156.32 38.0934 156.027C37.7614 155.731 37.5953 155.356 37.5953 154.904C37.5953 154.354 37.8037 153.927 38.2203 153.625C38.6403 153.319 39.2295 153.166 39.9879 153.166H40.8668V152.75C40.8668 152.435 40.7724 152.184 40.5836 151.999C40.3948 151.81 40.1165 151.715 39.7487 151.715C39.4264 151.715 39.1562 151.797 38.9381 151.959C38.72 152.122 38.611 152.319 38.611 152.55H37.7028C37.7028 152.287 37.7955 152.033 37.9811 151.789C38.1699 151.541 38.4238 151.346 38.7428 151.203C39.0651 151.059 39.4183 150.988 39.8024 150.988C40.4111 150.988 40.888 151.141 41.233 151.447C41.5781 151.75 41.7571 152.168 41.7701 152.702V155.133C41.7701 155.618 41.832 156.004 41.9557 156.291V156.369H41.0084ZM39.5094 155.68C39.7926 155.68 40.0612 155.607 40.3151 155.46C40.569 155.314 40.7529 155.124 40.8668 154.889V153.805H40.1588C39.052 153.805 38.4987 154.129 38.4987 154.777C38.4987 155.06 38.5931 155.281 38.7819 155.441C38.9707 155.6 39.2132 155.68 39.5094 155.68ZM44.4117 149.806V151.085H45.3981V151.784H44.4117V155.06C44.4117 155.272 44.4557 155.431 44.5436 155.539C44.6315 155.643 44.7812 155.695 44.9928 155.695C45.097 155.695 45.2402 155.675 45.4225 155.636V156.369C45.1849 156.434 44.9537 156.466 44.7291 156.466C44.3255 156.466 44.0211 156.344 43.816 156.1C43.611 155.856 43.5084 155.509 43.5084 155.06V151.784H42.5465V151.085H43.5084V149.806H44.4117ZM49.7194 156.369C49.6673 156.264 49.625 156.079 49.5924 155.812C49.1725 156.248 48.6712 156.466 48.0885 156.466C47.5677 156.466 47.1396 156.32 46.8043 156.027C46.4723 155.731 46.3063 155.356 46.3063 154.904C46.3063 154.354 46.5146 153.927 46.9313 153.625C47.3512 153.319 47.9404 153.166 48.6989 153.166H49.5778V152.75C49.5778 152.435 49.4834 152.184 49.2946 151.999C49.1058 151.81 48.8274 151.715 48.4596 151.715C48.1373 151.715 47.8671 151.797 47.649 151.959C47.4309 152.122 47.3219 152.319 47.3219 152.55H46.4137C46.4137 152.287 46.5065 152.033 46.692 151.789C46.8808 151.541 47.1347 151.346 47.4537 151.203C47.776 151.059 48.1292 150.988 48.5133 150.988C49.122 150.988 49.5989 151.141 49.944 151.447C50.289 151.75 50.4681 152.168 50.4811 152.702V155.133C50.4811 155.618 50.5429 156.004 50.6666 156.291V156.369H49.7194ZM48.2203 155.68C48.5035 155.68 48.7721 155.607 49.026 155.46C49.2799 155.314 49.4638 155.124 49.5778 154.889V153.805H48.8698C47.763 153.805 47.2096 154.129 47.2096 154.777C47.2096 155.06 47.304 155.281 47.4928 155.441C47.6816 155.6 47.9241 155.68 48.2203 155.68ZM54.9733 154.967C54.9733 154.723 54.8805 154.534 54.6949 154.401C54.5127 154.264 54.192 154.147 53.733 154.049C53.2773 153.952 52.9143 153.834 52.6442 153.698C52.3772 153.561 52.1787 153.398 52.0485 153.209C51.9215 153.021 51.858 152.796 51.858 152.536C51.858 152.103 52.0403 151.736 52.4049 151.437C52.7727 151.138 53.2415 150.988 53.8112 150.988C54.4101 150.988 54.8951 151.142 55.2662 151.452C55.6406 151.761 55.8278 152.156 55.8278 152.638H54.9196C54.9196 152.391 54.8138 152.178 54.6022 151.999C54.3938 151.819 54.1302 151.73 53.8112 151.73C53.4824 151.73 53.2252 151.802 53.0397 151.945C52.8541 152.088 52.7614 152.275 52.7614 152.506C52.7614 152.724 52.8476 152.889 53.0201 153C53.1927 153.11 53.5035 153.216 53.9528 153.317C54.4052 153.418 54.7714 153.538 55.0514 153.678C55.3313 153.818 55.538 153.987 55.6715 154.186C55.8082 154.381 55.8766 154.621 55.8766 154.904C55.8766 155.376 55.6878 155.755 55.3102 156.042C54.9326 156.325 54.4427 156.466 53.8405 156.466C53.4173 156.466 53.0429 156.391 52.7174 156.242C52.3919 156.092 52.1364 155.884 51.9508 155.617C51.7685 155.347 51.6774 155.055 51.6774 154.743H52.5807C52.597 155.045 52.7174 155.286 52.942 155.465C53.1699 155.641 53.4694 155.729 53.8405 155.729C54.1823 155.729 54.4557 155.661 54.6608 155.524C54.8691 155.384 54.9733 155.198 54.9733 154.967ZM57.9567 151.725C58.3571 151.234 58.8779 150.988 59.5192 150.988C60.6357 150.988 61.1989 151.618 61.2086 152.877V156.369H60.3053V152.873C60.302 152.492 60.2142 152.21 60.0416 152.028C59.8724 151.846 59.6071 151.754 59.2457 151.754C58.9528 151.754 58.6956 151.833 58.4742 151.989C58.2529 152.145 58.0804 152.35 57.9567 152.604V156.369H57.0533V148.869H57.9567V151.725ZM65.8229 156.369C65.7708 156.264 65.7285 156.079 65.6959 155.812C65.276 156.248 64.7747 156.466 64.192 156.466C63.6712 156.466 63.2431 156.32 62.9078 156.027C62.5758 155.731 62.4098 155.356 62.4098 154.904C62.4098 154.354 62.6181 153.927 63.0348 153.625C63.4547 153.319 64.0439 153.166 64.8024 153.166H65.6813V152.75C65.6813 152.435 65.5869 152.184 65.3981 151.999C65.2093 151.81 64.9309 151.715 64.5631 151.715C64.2408 151.715 63.9707 151.797 63.7526 151.959C63.5345 152.122 63.4254 152.319 63.4254 152.55H62.5172C62.5172 152.287 62.61 152.033 62.7955 151.789C62.9843 151.541 63.2382 151.346 63.5573 151.203C63.8795 151.059 64.2327 150.988 64.6168 150.988C65.2255 150.988 65.7024 151.141 66.0475 151.447C66.3925 151.75 66.5716 152.168 66.5846 152.702V155.133C66.5846 155.618 66.6464 156.004 66.7701 156.291V156.369H65.8229ZM64.3239 155.68C64.6071 155.68 64.8756 155.607 65.1295 155.46C65.3834 155.314 65.5673 155.124 65.6813 154.889V153.805H64.9733C63.8665 153.805 63.3131 154.129 63.3131 154.777C63.3131 155.06 63.4075 155.281 63.5963 155.441C63.7851 155.6 64.0276 155.68 64.3239 155.68ZM70.6227 156.369V149.259H72.9469C73.7184 149.259 74.2978 149.419 74.6852 149.738C75.0758 150.057 75.2711 150.529 75.2711 151.154C75.2711 151.486 75.1767 151.78 74.9879 152.038C74.7991 152.292 74.542 152.488 74.2164 152.628C74.6005 152.736 74.9033 152.941 75.1246 153.244C75.3492 153.543 75.4615 153.901 75.4615 154.318C75.4615 154.956 75.2548 155.457 74.8414 155.822C74.428 156.186 73.8437 156.369 73.0885 156.369H70.6227ZM71.5602 153.043V155.602H73.108C73.5442 155.602 73.8877 155.49 74.1383 155.265C74.3922 155.037 74.5192 154.725 74.5192 154.328C74.5192 153.472 74.0537 153.043 73.1227 153.043H71.5602ZM71.5602 152.292H72.9762C73.3864 152.292 73.7135 152.189 73.9576 151.984C74.205 151.779 74.3287 151.5 74.3287 151.149C74.3287 150.758 74.2148 150.475 73.9869 150.299C73.7591 150.12 73.4124 150.031 72.9469 150.031H71.5602V152.292ZM77.693 156.369H76.7897V148.869H77.693V156.369ZM82.4049 156.369C82.3528 156.264 82.3105 156.079 82.278 155.812C81.858 156.248 81.3567 156.466 80.774 156.466C80.2532 156.466 79.8252 156.32 79.4899 156.027C79.1578 155.731 78.9918 155.356 78.9918 154.904C78.9918 154.354 79.2002 153.927 79.6168 153.625C80.0367 153.319 80.6259 153.166 81.3844 153.166H82.2633V152.75C82.2633 152.435 82.1689 152.184 81.9801 151.999C81.7913 151.81 81.513 151.715 81.1451 151.715C80.8229 151.715 80.5527 151.797 80.3346 151.959C80.1165 152.122 80.0074 152.319 80.0074 152.55H79.0992C79.0992 152.287 79.192 152.033 79.3776 151.789C79.5664 151.541 79.8203 151.346 80.1393 151.203C80.4615 151.059 80.8147 150.988 81.1989 150.988C81.8076 150.988 82.2845 151.141 82.6295 151.447C82.9746 151.75 83.1536 152.168 83.1666 152.702V155.133C83.1666 155.618 83.2285 156.004 83.3522 156.291V156.369H82.4049ZM80.9059 155.68C81.1891 155.68 81.4576 155.607 81.7115 155.46C81.9655 155.314 82.1494 155.124 82.2633 154.889V153.805H81.5553C80.4485 153.805 79.8951 154.129 79.8951 154.777C79.8951 155.06 79.9895 155.281 80.1783 155.441C80.3671 155.6 80.6097 155.68 80.9059 155.68ZM86.7018 155.729C87.024 155.729 87.3056 155.631 87.5465 155.436C87.7874 155.241 87.9209 154.997 87.9469 154.704H88.8014C88.7851 155.006 88.6809 155.294 88.4889 155.568C88.2968 155.841 88.0397 156.059 87.7174 156.222C87.3984 156.385 87.0599 156.466 86.7018 156.466C85.9824 156.466 85.4095 156.227 84.983 155.749C84.5599 155.267 84.3483 154.609 84.3483 153.776V153.625C84.3483 153.11 84.4427 152.653 84.6315 152.252C84.8203 151.852 85.0905 151.541 85.442 151.32C85.7968 151.098 86.2151 150.988 86.6969 150.988C87.2893 150.988 87.7809 151.165 88.1715 151.52C88.5654 151.875 88.7753 152.335 88.8014 152.902H87.9469C87.9209 152.56 87.7906 152.28 87.5563 152.062C87.3252 151.841 87.0387 151.73 86.6969 151.73C86.2379 151.73 85.8815 151.896 85.6276 152.228C85.3769 152.557 85.2516 153.034 85.2516 153.659V153.83C85.2516 154.438 85.3769 154.907 85.6276 155.236C85.8782 155.565 86.2363 155.729 86.7018 155.729ZM91.2916 153.922L90.7252 154.513V156.369H89.8219V148.869H90.7252V153.405L91.2086 152.824L92.8541 151.085H93.9528L91.8971 153.292L94.192 156.369H93.1324L91.2916 153.922Z" fill="white"/>
<rect x="238" y="180" width="100" height="30" rx="6" fill="#2DD3E3"/>
<path fill-rule="evenodd" clip-rule="evenodd" d="M314.616 195.5C314.616 195.155 314.896 194.875 315.241 194.875H323.991C324.336 194.875 324.616 195.155 324.616 195.5C324.616 195.845 324.336 196.125 323.991 196.125H315.241C314.896 196.125 314.616 195.845 314.616 195.5Z" fill="black"/>
<path d="M248.99 199V190.469H251.398C252.141 190.469 252.797 190.633 253.367 190.961C253.938 191.289 254.377 191.756 254.686 192.361C254.998 192.967 255.156 193.662 255.16 194.447V194.992C255.16 195.797 255.004 196.502 254.691 197.107C254.383 197.713 253.939 198.178 253.361 198.502C252.787 198.826 252.117 198.992 251.352 199H248.99ZM250.115 191.395V198.08H251.299C252.166 198.08 252.84 197.811 253.32 197.271C253.805 196.732 254.047 195.965 254.047 194.969V194.471C254.047 193.502 253.818 192.75 253.361 192.215C252.908 191.676 252.264 191.402 251.428 191.395H250.115ZM259.326 199.117C258.467 199.117 257.768 198.836 257.229 198.273C256.689 197.707 256.42 196.951 256.42 196.006V195.807C256.42 195.178 256.539 194.617 256.777 194.125C257.02 193.629 257.355 193.242 257.785 192.965C258.219 192.684 258.688 192.543 259.191 192.543C260.016 192.543 260.656 192.814 261.113 193.357C261.57 193.9 261.799 194.678 261.799 195.689V196.141H257.504C257.52 196.766 257.701 197.271 258.049 197.658C258.4 198.041 258.846 198.232 259.385 198.232C259.768 198.232 260.092 198.154 260.357 197.998C260.623 197.842 260.855 197.635 261.055 197.377L261.717 197.893C261.186 198.709 260.389 199.117 259.326 199.117ZM259.191 193.434C258.754 193.434 258.387 193.594 258.09 193.914C257.793 194.23 257.609 194.676 257.539 195.25H260.715V195.168C260.684 194.617 260.535 194.191 260.27 193.891C260.004 193.586 259.645 193.434 259.191 193.434ZM264.236 199H263.152V190H264.236V199ZM268.607 199.117C267.748 199.117 267.049 198.836 266.51 198.273C265.971 197.707 265.701 196.951 265.701 196.006V195.807C265.701 195.178 265.82 194.617 266.059 194.125C266.301 193.629 266.637 193.242 267.066 192.965C267.5 192.684 267.969 192.543 268.473 192.543C269.297 192.543 269.938 192.814 270.395 193.357C270.852 193.9 271.08 194.678 271.08 195.689V196.141H266.785C266.801 196.766 266.982 197.271 267.33 197.658C267.682 198.041 268.127 198.232 268.666 198.232C269.049 198.232 269.373 198.154 269.639 197.998C269.904 197.842 270.137 197.635 270.336 197.377L270.998 197.893C270.467 198.709 269.67 199.117 268.607 199.117ZM268.473 193.434C268.035 193.434 267.668 193.594 267.371 193.914C267.074 194.23 266.891 194.676 266.82 195.25H269.996V195.168C269.965 194.617 269.816 194.191 269.551 193.891C269.285 193.586 268.926 193.434 268.473 193.434ZM273.811 191.125V192.66H274.994V193.498H273.811V197.43C273.811 197.684 273.863 197.875 273.969 198.004C274.074 198.129 274.254 198.191 274.508 198.191C274.633 198.191 274.805 198.168 275.023 198.121V199C274.738 199.078 274.461 199.117 274.191 199.117C273.707 199.117 273.342 198.971 273.096 198.678C272.85 198.385 272.727 197.969 272.727 197.43V193.498H271.572V192.66H272.727V191.125H273.811ZM278.896 199.117C278.037 199.117 277.338 198.836 276.799 198.273C276.26 197.707 275.99 196.951 275.99 196.006V195.807C275.99 195.178 276.109 194.617 276.348 194.125C276.59 193.629 276.926 193.242 277.355 192.965C277.789 192.684 278.258 192.543 278.762 192.543C279.586 192.543 280.227 192.814 280.684 193.357C281.141 193.9 281.369 194.678 281.369 195.689V196.141H277.074C277.09 196.766 277.271 197.271 277.619 197.658C277.971 198.041 278.416 198.232 278.955 198.232C279.338 198.232 279.662 198.154 279.928 197.998C280.193 197.842 280.426 197.635 280.625 197.377L281.287 197.893C280.756 198.709 279.959 199.117 278.896 199.117ZM278.762 193.434C278.324 193.434 277.957 193.594 277.66 193.914C277.363 194.23 277.18 194.676 277.109 195.25H280.285V195.168C280.254 194.617 280.105 194.191 279.84 193.891C279.574 193.586 279.215 193.434 278.762 193.434ZM292.051 196.293C291.945 197.195 291.611 197.893 291.049 198.385C290.49 198.873 289.746 199.117 288.816 199.117C287.809 199.117 287 198.756 286.391 198.033C285.785 197.311 285.482 196.344 285.482 195.133V194.312C285.482 193.52 285.623 192.822 285.904 192.221C286.189 191.619 286.592 191.158 287.111 190.838C287.631 190.514 288.232 190.352 288.916 190.352C289.822 190.352 290.549 190.605 291.096 191.113C291.643 191.617 291.961 192.316 292.051 193.211H290.92C290.822 192.531 290.609 192.039 290.281 191.734C289.957 191.43 289.502 191.277 288.916 191.277C288.197 191.277 287.633 191.543 287.223 192.074C286.816 192.605 286.613 193.361 286.613 194.342V195.168C286.613 196.094 286.807 196.83 287.193 197.377C287.58 197.924 288.121 198.197 288.816 198.197C289.441 198.197 289.92 198.057 290.252 197.775C290.588 197.49 290.811 196.996 290.92 196.293H292.051ZM297.336 199C297.273 198.875 297.223 198.652 297.184 198.332C296.68 198.855 296.078 199.117 295.379 199.117C294.754 199.117 294.24 198.941 293.838 198.59C293.439 198.234 293.24 197.785 293.24 197.242C293.24 196.582 293.49 196.07 293.99 195.707C294.494 195.34 295.201 195.156 296.111 195.156H297.166V194.658C297.166 194.279 297.053 193.979 296.826 193.756C296.6 193.529 296.266 193.416 295.824 193.416C295.438 193.416 295.113 193.514 294.852 193.709C294.59 193.904 294.459 194.141 294.459 194.418H293.369C293.369 194.102 293.48 193.797 293.703 193.504C293.93 193.207 294.234 192.973 294.617 192.801C295.004 192.629 295.428 192.543 295.889 192.543C296.619 192.543 297.191 192.727 297.605 193.094C298.02 193.457 298.234 193.959 298.25 194.6V197.518C298.25 198.1 298.324 198.562 298.473 198.906V199H297.336ZM295.537 198.174C295.877 198.174 296.199 198.086 296.504 197.91C296.809 197.734 297.029 197.506 297.166 197.225V195.924H296.316C294.988 195.924 294.324 196.312 294.324 197.09C294.324 197.43 294.438 197.695 294.664 197.887C294.891 198.078 295.182 198.174 295.537 198.174ZM303.014 193.633C302.85 193.605 302.672 193.592 302.48 193.592C301.77 193.592 301.287 193.895 301.033 194.5V199H299.949V192.66H301.004L301.021 193.393C301.377 192.826 301.881 192.543 302.533 192.543C302.744 192.543 302.904 192.57 303.014 192.625V193.633ZM303.635 195.777C303.635 194.805 303.865 194.023 304.326 193.434C304.787 192.84 305.391 192.543 306.137 192.543C306.879 192.543 307.467 192.797 307.9 193.305V190H308.984V199H307.988L307.936 198.32C307.502 198.852 306.898 199.117 306.125 199.117C305.391 199.117 304.791 198.816 304.326 198.215C303.865 197.613 303.635 196.828 303.635 195.859V195.777ZM304.719 195.9C304.719 196.619 304.867 197.182 305.164 197.588C305.461 197.994 305.871 198.197 306.395 198.197C307.082 198.197 307.584 197.889 307.9 197.271V194.359C307.576 193.762 307.078 193.463 306.406 193.463C305.875 193.463 305.461 193.668 305.164 194.078C304.867 194.488 304.719 195.096 304.719 195.9Z" fill="black"/>
<path d="M295.96 41.1801C295.9 43.8801 298.36 45.3801 300.22 46.2801C302.08 47.1801 302.74 47.7801 302.74 48.6201C302.74 49.8801 301.24 50.4201 299.86 50.4801C297.4 50.5401 296.02 49.8201 294.88 49.2801L293.98 53.3601C295.12 53.9001 297.22 54.3201 299.38 54.3801C304.48 54.3801 307.78 51.8601 307.84 47.9601C307.84 43.0401 301 42.7401 301.06 40.5201C301.06 39.8601 301.72 39.1401 303.1 38.9601C303.82 38.8401 305.68 38.7801 307.9 39.8001L308.74 35.8401C307.6 35.4201 306.1 35.0001 304.18 35.0001C299.38 35.0001 296.02 37.5201 295.96 41.1801ZM316.9 35.3001C316 35.3001 315.16 35.8401 314.86 36.6801L307.54 54.0201H312.64L313.66 51.2001H319.9L320.5 54.0201H325L321.1 35.3001H316.9ZM317.62 40.4001L319.06 47.4201H315.04L317.62 40.4001ZM289.84 35.3001L285.82 54.0201H290.68L294.7 35.3001H289.84ZM282.64 35.3001L277.6 48.0201L275.56 37.2201C275.32 36.0201 274.36 35.3001 273.34 35.3001H265.12L265 35.8401C266.68 36.2001 268.6 36.8001 269.8 37.4601C270.52 37.8201 270.7 38.1801 270.94 39.0801L274.78 54.0201H279.88L287.74 35.3001H282.64Z" fill="#2DD3E3"/>
</svg>
